<svg xmlns="http://www.w3.org/2000/svg" xmlns:xlink="http://www.w3.org/1999/xlink" width="500" zoomAndPan="magnify" viewBox="0 0 375 374.999991" height="500" preserveAspectRatio="xMidYMid meet" version="1.0"><defs><clipPath id="id1"><path d="M 206 336 L 269 336 L 269 370.277344 L 206 370.277344 Z M 206 336 " clip-rule="nonzero"/></clipPath><clipPath id="id2"><path d="M 85 207 L 282 207 L 282 370.277344 L 85 370.277344 Z M 85 207 " clip-rule="nonzero"/></clipPath></defs><path stroke-linecap="butt" transform="matrix(3.75, 0, 0, 3.75, 127.499996, 187.499988)" fill="none" stroke-linejoin="miter" d="M 0.00000103267 0.00000328333 L 32.000003 0.00000328333 " stroke="#ffffff" stroke-width="1" stroke-opacity="1" stroke-miterlimit="4"/><path fill="#bf003f" d="M 209.203125 367.90625 L 266.59375 367.90625 L 266.59375 339.097656 L 209.203125 339.097656 L 209.203125 367.90625 " fill-opacity="1" fill-rule="nonzero"/><g clip-path="url(#id1)"><path stroke-linecap="round" transform="matrix(0.156011, 0, 0, -0.156424, -148.047862, 523.104878)" fill="none" stroke-linejoin="round" d="M 2289.91423 992.166507 L 2657.77776 992.166507 L 2657.77776 1176.336446 L 2289.91423 1176.336446 Z M 2289.91423 992.166507 " stroke="#181821" stroke-width="30" stroke-opacity="1" stroke-miterlimit="10"/></g><path fill="#bf003f" d="M 198.484375 125.640625 L 221.171875 146.621094 C 196.34375 175.164062 218.175781 229.667969 218.175781 229.667969 L 141.632812 201.433594 C 151.210938 161.386719 140.253906 146.621094 140.253906 146.621094 L 198.484375 125.640625 " fill-opacity="1" fill-rule="nonzero"/><path stroke-linecap="round" transform="matrix(0.156011, 0, 0, -0.156424, -148.047862, 523.104878)" fill="none" stroke-linejoin="round" d="M 2221.208981 2540.942051 L 2366.631754 2406.816391 C 2207.487962 2224.344561 2347.427334 1875.907522 2347.427334 1875.907522 L 1856.800745 2056.406548 C 1918.194794 2312.421493 1847.962205 2406.816391 1847.962205 2406.816391 Z M 2221.208981 2540.942051 " stroke="#181821" stroke-width="30" stroke-opacity="1" stroke-miterlimit="10"/><path fill="#bf003f" d="M 181.050781 225.929688 L 188.800781 227.847656 L 211.933594 134.089844 L 204.183594 132.164062 L 181.050781 225.929688 " fill-opacity="1" fill-rule="nonzero"/><path stroke-linecap="round" transform="matrix(0.156011, 0, 0, -0.156424, -148.047862, 523.104878)" fill="none" stroke-linejoin="round" d="M 2109.462797 1899.805913 L 2159.138896 1887.544565 L 2307.416041 2486.927193 L 2257.739942 2499.238485 Z M 2109.462797 1899.805913 " stroke="#181821" stroke-width="30" stroke-opacity="1" stroke-miterlimit="10"/><path fill="#bf003f" d="M 139.945312 223.570312 L 147.695312 225.496094 L 170.828125 131.730469 L 163.078125 129.808594 L 139.945312 223.570312 " fill-opacity="1" fill-rule="nonzero"/><path stroke-linecap="round" transform="matrix(0.156011, 0, 0, -0.156424, -148.047862, 523.104878)" fill="none" stroke-linejoin="round" d="M 1845.984175 1914.889118 L 1895.660273 1902.577826 L 2043.937419 2502.010399 L 1994.26132 2514.296719 Z M 1845.984175 1914.889118 " stroke="#181821" stroke-width="30" stroke-opacity="1" stroke-miterlimit="10"/><path fill="#bf003f" d="M 185.230469 195.195312 C 185.230469 203.859375 178.226562 210.878906 169.59375 210.878906 C 160.949219 210.878906 153.949219 203.859375 153.949219 195.195312 C 153.949219 186.53125 160.949219 179.515625 169.59375 179.515625 C 178.226562 179.515625 185.230469 186.53125 185.230469 195.195312 " fill-opacity="1" fill-rule="nonzero"/><path stroke-linecap="round" transform="matrix(0.156011, 0, 0, -0.156424, -148.047862, 523.104878)" fill="none" stroke-linejoin="round" d="M 2136.253838 2096.287144 C 2136.253838 2040.898815 2091.360065 1996.02378 2036.025298 1996.02378 C 1980.615416 1996.02378 1935.746682 2040.898815 1935.746682 2096.287144 C 1935.746682 2151.675473 1980.615416 2196.525535 2036.025298 2196.525535 C 2091.360065 2196.525535 2136.253838 2151.675473 2136.253838 2096.287144 Z M 2136.253838 2096.287144 " stroke="#181821" stroke-width="30" stroke-opacity="1" stroke-miterlimit="10"/><path fill="#bf003f" d="M 161.121094 186.53125 C 160.273438 185.679688 159.53125 184.769531 158.828125 183.835938 C 155.832031 186.6875 153.949219 190.714844 153.949219 195.195312 C 153.949219 203.859375 160.949219 210.878906 169.59375 210.878906 C 173.957031 210.878906 177.898438 209.082031 180.730469 206.191406 C 174.199219 199.636719 167.660156 193.085938 161.121094 186.53125 " fill-opacity="1" fill-rule="nonzero"/><path stroke-linecap="round" transform="matrix(0.156011, 0, 0, -0.156424, -148.047862, 523.104878)" fill="none" stroke-linejoin="round" d="M 1981.717104 2151.675473 C 1976.28378 2157.119411 1971.526493 2162.937933 1967.019589 2168.906288 C 1947.815169 2150.676585 1935.746682 2124.930252 1935.746682 2096.287144 C 1935.746682 2040.898815 1980.615416 1996.02378 2036.025298 1996.02378 C 2063.993142 1996.02378 2089.256844 2007.51099 2107.409652 2025.990415 C 2065.54552 2067.893758 2023.631312 2109.772129 1981.717104 2151.675473 Z M 1981.717104 2151.675473 " stroke="#181821" stroke-width="30" stroke-opacity="1" stroke-miterlimit="10"/><path fill="#bf003f" d="M 175.273438 195.195312 C 175.273438 198.347656 172.730469 200.894531 169.59375 200.894531 C 166.453125 200.894531 163.90625 198.347656 163.90625 195.195312 C 163.90625 192.046875 166.453125 189.5 169.59375 189.5 C 172.730469 189.5 175.273438 192.046875 175.273438 195.195312 " fill-opacity="1" fill-rule="nonzero"/><path stroke-linecap="round" transform="matrix(0.156011, 0, 0, -0.156424, -148.047862, 523.104878)" fill="none" stroke-linejoin="round" d="M 2072.431068 2096.287144 C 2072.431068 2076.134583 2056.131098 2059.852711 2036.025298 2059.852711 C 2015.89446 2059.852711 1999.569452 2076.134583 1999.569452 2096.287144 C 1999.569452 2116.414733 2015.89446 2132.696605 2036.025298 2132.696605 C 2056.131098 2132.696605 2072.431068 2116.414733 2072.431068 2096.287144 Z M 2072.431068 2096.287144 " stroke="#181821" stroke-width="30" stroke-opacity="1" stroke-miterlimit="10"/><path fill="#bf003f" d="M 186.882812 15.28125 C 171.617188 11.996094 137.933594 21.09375 125.914062 30.851562 C 98.691406 52.957031 91.214844 99.292969 110.984375 131.769531 C 115.316406 138.886719 124.976562 146.011719 133.59375 146.621094 C 133.636719 146.628906 209.898438 152.074219 218.371094 84.089844 C 218.371094 84.089844 222.613281 22.96875 186.882812 15.28125 " fill-opacity="1" fill-rule="nonzero"/><path stroke-linecap="round" transform="matrix(0.156011, 0, 0, -0.156424, -148.047862, 523.104878)" fill="none" stroke-linejoin="round" d="M 2146.845063 3246.456509 C 2048.995167 3267.458125 1833.089421 3209.297882 1756.046399 3146.917339 C 1581.554095 3005.599687 1533.630681 2709.379507 1660.349802 2501.760677 C 1688.117339 2456.261337 1750.037194 2410.712053 1805.271807 2406.816391 C 1805.547229 2406.766447 2294.371058 2371.955206 2348.679252 2806.571291 C 2348.679252 2806.571291 2375.870907 3197.311229 2146.845063 3246.456509 Z M 2146.845063 3246.456509 " stroke="#181821" stroke-width="30" stroke-opacity="1" stroke-miterlimit="10"/><path fill="#bf003f" d="M 172.511719 92.992188 L 148.628906 92.992188 C 146.292969 99.886719 143.6875 106.722656 140.675781 113.351562 C 145.605469 115.972656 151.222656 117.464844 157.195312 117.464844 C 168.074219 117.464844 177.796875 112.535156 184.265625 104.78125 C 180.347656 100.851562 176.429688 96.914062 172.511719 92.992188 " fill-opacity="1" fill-rule="nonzero"/><path stroke-linecap="round" transform="matrix(0.156011, 0, 0, -0.156424, -148.047862, 523.104878)" fill="none" stroke-linejoin="round" d="M 2054.72895 2749.659658 L 1901.64444 2749.659658 C 1886.671503 2705.583734 1869.97092 2661.882392 1850.666347 2619.504577 C 1882.264753 2602.748234 1918.269909 2593.208856 1956.553556 2593.208856 C 2026.285378 2593.208856 2088.605846 2624.723766 2130.069364 2674.293573 C 2104.955893 2699.415602 2079.842422 2724.587574 2054.72895 2749.659658 Z M 2054.72895 2749.659658 " stroke="#181821" stroke-width="30" stroke-opacity="1" stroke-miterlimit="10"/><path fill="#bf003f" d="M 172.511719 55.328125 L 148.628906 55.328125 C 146.292969 48.4375 143.6875 41.597656 140.675781 34.96875 C 145.605469 32.339844 151.222656 30.851562 157.195312 30.851562 C 168.074219 30.851562 177.796875 35.78125 184.265625 43.542969 C 180.347656 47.472656 176.429688 51.398438 172.511719 55.328125 " fill-opacity="1" fill-rule="nonzero"/><path stroke-linecap="round" transform="matrix(0.156011, 0, 0, -0.156424, -148.047862, 523.104878)" fill="none" stroke-linejoin="round" d="M 2054.72895 2990.441564 L 1901.64444 2990.441564 C 1886.671503 3034.492516 1869.97092 3078.21883 1850.666347 3120.596645 C 1882.264753 3137.402933 1918.269909 3146.917339 1956.553556 3146.917339 C 2026.285378 3146.917339 2088.605846 3115.402429 2130.069364 3065.782677 C 2104.955893 3040.660649 2079.842422 3015.563592 2054.72895 2990.441564 Z M 2054.72895 2990.441564 " stroke="#181821" stroke-width="30" stroke-opacity="1" stroke-miterlimit="10"/><path fill="#bf003f" d="M 129.792969 66.675781 L 140.675781 87.988281 C 135.617188 93.210938 130.742188 98.65625 126.226562 104.371094 C 121.648438 101.167969 117.761719 96.828125 115.039062 91.496094 C 110.082031 81.792969 110.027344 70.875 113.964844 61.5625 C 119.234375 63.265625 124.515625 64.972656 129.792969 66.675781 " fill-opacity="1" fill-rule="nonzero"/><path stroke-linecap="round" transform="matrix(0.156011, 0, 0, -0.156424, -148.047862, 523.104878)" fill="none" stroke-linejoin="round" d="M 1780.909487 2917.897337 L 1850.666347 2781.64904 C 1818.241676 2748.261215 1786.993807 2713.449975 1758.049468 2676.915654 C 1728.704514 2697.392854 1703.79135 2725.136963 1686.339615 2759.224009 C 1654.565941 2821.254942 1654.215404 2891.052227 1679.454068 2950.585941 C 1713.23081 2939.698063 1747.082668 2928.785214 1780.909487 2917.897337 Z M 1780.909487 2917.897337 " stroke="#181821" stroke-width="30" stroke-opacity="1" stroke-miterlimit="10"/><path fill="#bf003f" d="M 192.5 73.605469 C 192.5 93.152344 176.691406 109 157.195312 109 C 137.703125 109 121.898438 93.152344 121.898438 73.605469 C 121.898438 54.058594 137.703125 38.214844 157.195312 38.214844 C 176.691406 38.214844 192.5 54.058594 192.5 73.605469 " fill-opacity="1" fill-rule="nonzero"/><path stroke-linecap="round" transform="matrix(0.156011, 0, 0, -0.156424, -148.047862, 523.104878)" fill="none" stroke-linejoin="round" d="M 2182.850219 2873.596663 C 2182.850219 2748.635798 2081.519991 2647.323603 1956.553556 2647.323603 C 1831.612158 2647.323603 1730.306969 2748.635798 1730.306969 2873.596663 C 1730.306969 2998.557527 1831.612158 3099.844751 1956.553556 3099.844751 C 2081.519991 3099.844751 2182.850219 2998.557527 2182.850219 2873.596663 Z M 2182.850219 2873.596663 " stroke="#181821" stroke-width="30" stroke-opacity="1" stroke-miterlimit="10"/><path fill="#bf003f" d="M 177.769531 73.605469 C 177.769531 85 168.5625 94.234375 157.195312 94.234375 C 145.835938 94.234375 136.621094 85 136.621094 73.605469 C 136.621094 62.214844 145.835938 52.976562 157.195312 52.976562 C 168.5625 52.976562 177.769531 62.214844 177.769531 73.605469 " fill-opacity="1" fill-rule="nonzero"/><path stroke-linecap="round" transform="matrix(0.156011, 0, 0, -0.156424, -148.047862, 523.104878)" fill="none" stroke-linejoin="round" d="M 2088.430578 2873.596663 C 2088.430578 2800.75277 2029.415172 2741.7185 1956.553556 2741.7185 C 1883.742016 2741.7185 1824.676534 2800.75277 1824.676534 2873.596663 C 1824.676534 2946.415584 1883.742016 3005.474826 1956.553556 3005.474826 C 2029.415172 3005.474826 2088.430578 2946.415584 2088.430578 2873.596663 Z M 2088.430578 2873.596663 " stroke="#181821" stroke-width="30" stroke-opacity="1" stroke-miterlimit="10"/><path fill="#bf003f" d="M 166.796875 73.605469 C 166.796875 78.914062 162.5 83.222656 157.195312 83.222656 C 151.902344 83.222656 147.605469 78.914062 147.605469 73.605469 C 147.605469 68.292969 151.902344 63.988281 157.195312 63.988281 C 162.5 63.988281 166.796875 68.292969 166.796875 73.605469 " fill-opacity="1" fill-rule="nonzero"/><path stroke-linecap="round" transform="matrix(0.156011, 0, 0, -0.156424, -148.047862, 523.104878)" fill="none" stroke-linejoin="round" d="M 2018.097835 2873.596663 C 2018.097835 2839.65945 1990.555643 2812.115118 1956.553556 2812.115118 C 1922.626583 2812.115118 1895.084391 2839.65945 1895.084391 2873.596663 C 1895.084391 2907.558848 1922.626583 2935.078207 1956.553556 2935.078207 C 1990.555643 2935.078207 2018.097835 2907.558848 2018.097835 2873.596663 Z M 2018.097835 2873.596663 " stroke="#181821" stroke-width="30" stroke-opacity="1" stroke-miterlimit="10"/><path fill="#bf003f" d="M 260.058594 104.847656 L 260.558594 101.328125 C 260.558594 101.328125 253.65625 95.753906 250.570312 90 C 250.570312 90 245.835938 78.914062 243.351562 70.71875 C 241.203125 62.355469 237.90625 53.917969 233.433594 44.550781 C 221.582031 19.710938 211.660156 7.882812 188.378906 15.445312 C 179.777344 18.246094 172.371094 25.449219 166.800781 35.367188 C 177.800781 41.878906 185.308594 53.90625 185.308594 67.425781 C 185.308594 83.605469 174.566406 97.628906 159.953125 102.648438 C 170.324219 117.300781 181.480469 132.28125 195.109375 142.960938 C 196.675781 144.183594 198.234375 145.402344 199.796875 146.621094 L 240.523438 146.621094 C 240.523438 146.621094 248.414062 147.777344 248.414062 143.285156 L 245.617188 106.171875 C 245.625 106.136719 245.628906 106.097656 245.628906 106.0625 L 260.058594 104.847656 " fill-opacity="1" fill-rule="nonzero"/><path stroke-linecap="round" transform="matrix(0.156011, 0, 0, -0.156424, -148.047862, 523.104878)" fill="none" stroke-linejoin="round" d="M 2615.88859 2673.869046 L 2619.093499 2696.368994 C 2619.093499 2696.368994 2574.850724 2732.004316 2555.070422 2768.78836 C 2555.070422 2768.78836 2524.723935 2839.65945 2508.79954 2892.051115 C 2495.028444 2945.516585 2473.896072 2999.456526 2445.227154 3059.33985 C 2369.260781 3218.13804 2305.663356 3293.753846 2156.434753 3245.407677 C 2101.300293 3227.502613 2053.827569 3181.453885 2018.122874 3118.049481 C 2088.630885 3076.420832 2136.754605 2999.531443 2136.754605 2913.102676 C 2136.754605 2809.667843 2067.899126 2720.017663 1974.230635 2687.928392 C 2040.707471 2594.257688 2112.217016 2498.489319 2199.575841 2430.215338 C 2209.616222 2422.399041 2219.606526 2414.607716 2229.621868 2406.816391 L 2490.67177 2406.816391 C 2490.67177 2406.816391 2541.24925 2399.424621 2541.24925 2428.142646 L 2523.321787 2665.403472 C 2523.371863 2665.628222 2523.396902 2665.877944 2523.396902 2666.102693 Z M 2615.88859 2673.869046 " stroke="#181821" stroke-width="30" stroke-opacity="1" stroke-miterlimit="10"/><path stroke-linecap="round" transform="matrix(0.156011, 0, 0, -0.156424, -148.047862, 523.104878)" fill="none" stroke-linejoin="round" d="M 2426.924115 2882.162126 C 2426.924115 2864.23209 2419.637954 2851.246548 2394.173945 2851.246548 C 2368.760014 2851.246548 2328.823836 2852.045658 2328.823836 2869.975695 C 2328.823836 2887.855786 2368.434515 2914.62598 2393.898523 2914.62598 C 2419.337493 2914.62598 2426.924115 2900.092162 2426.924115 2882.162126 Z M 2426.924115 2882.162126 " stroke="#181821" stroke-width="30" stroke-opacity="1" stroke-miterlimit="10"/><path stroke-linecap="round" transform="matrix(0.156011, 0, 0, -0.156424, -148.047862, 523.104878)" fill="none" stroke-linejoin="round" d="M 2299.679189 2928.360687 C 2299.679189 2928.360687 2349.680786 2966.218535 2419.062071 2966.218535 " stroke="#181821" stroke-width="30" stroke-opacity="1" stroke-miterlimit="10"/><path fill="#bf003f" d="M 130.984375 211.464844 L 135.007812 195.195312 L 220.242188 216.921875 L 222.527344 228.304688 L 130.984375 211.464844 " fill-opacity="1" fill-rule="nonzero"/><path stroke-linecap="round" transform="matrix(0.156011, 0, 0, -0.156424, -148.047862, 523.104878)" fill="none" stroke-linejoin="round" d="M 1788.546186 1992.277951 L 1814.335692 2096.287144 L 2360.672625 1957.391795 L 2375.320063 1884.622818 Z M 1788.546186 1992.277951 " stroke="#181821" stroke-width="30" stroke-opacity="1" stroke-miterlimit="10"/><path fill="#bf003f" d="M 252.753906 339.097656 L 279.640625 339.097656 C 276.355469 305.648438 273.703125 265.988281 245.890625 245.46875 C 238.113281 239.730469 230.320312 234.007812 222.527344 228.304688 L 132.6875 210.058594 C 80.957031 251.273438 87.9375 367.90625 87.9375 367.90625 L 216.652344 367.90625 C 220.519531 351.5625 235.402344 339.097656 252.753906 339.097656 " fill-opacity="1" fill-rule="nonzero"/><g clip-path="url(#id2)"><path stroke-linecap="round" transform="matrix(0.156011, 0, 0, -0.156424, -148.047862, 523.104878)" fill="none" stroke-linejoin="round" d="M 2569.066863 1176.336446 L 2741.405869 1176.336446 C 2720.348612 1390.173354 2703.347568 1643.716051 2525.074472 1774.894992 C 2475.223104 1811.579147 2425.271584 1848.163413 2375.320063 1884.622818 L 1799.462909 2001.267941 C 1467.879958 1737.78631 1512.6235 992.166507 1512.6235 992.166507 L 2337.662375 992.166507 C 2362.450348 1096.650172 2457.846485 1176.336446 2569.066863 1176.336446 Z M 2569.066863 1176.336446 " stroke="#181821" stroke-width="30" stroke-opacity="1" stroke-miterlimit="10"/></g><path fill="#bf003f" d="M 176.976562 367.90625 L 181.074219 321.929688 L 105.195312 321.929688 L 109.296875 367.90625 L 176.976562 367.90625 " fill-opacity="1" fill-rule="nonzero"/><path fill="#000000" d="M 111.253906 367.90625 L 107.328125 323.890625 L 178.941406 323.890625 L 175.015625 367.90625 L 178.933594 367.90625 L 183.019531 322.105469 C 183.066406 321.554688 182.882812 321.015625 182.519531 320.609375 C 182.144531 320.203125 181.621094 319.972656 181.074219 319.972656 L 105.195312 319.972656 C 104.648438 319.972656 104.121094 320.203125 103.757812 320.609375 C 103.386719 321.015625 103.203125 321.554688 103.25 322.105469 L 107.335938 367.90625 L 111.253906 367.90625 " fill-opacity="1" fill-rule="nonzero"/><path fill="#bf003f" d="M 178.867188 346.679688 L 181.074219 321.929688 L 105.195312 321.929688 L 107.402344 346.679688 L 178.867188 346.679688 " fill-opacity="1" fill-rule="nonzero"/><path fill="#000000" d="M 109.1875 344.726562 L 177.082031 344.726562 L 178.941406 323.890625 L 107.328125 323.890625 Z M 178.867188 348.636719 L 107.402344 348.636719 C 106.390625 348.636719 105.546875 347.859375 105.457031 346.859375 L 103.25 322.105469 C 103.203125 321.554688 103.386719 321.015625 103.757812 320.609375 C 104.121094 320.203125 104.648438 319.972656 105.195312 319.972656 L 181.074219 319.972656 C 181.621094 319.972656 182.144531 320.203125 182.519531 320.609375 C 182.882812 321.015625 183.066406 321.554688 183.019531 322.105469 L 180.8125 346.859375 C 180.71875 347.859375 179.878906 348.636719 178.867188 348.636719 " fill-opacity="1" fill-rule="nonzero"/><path fill="#bf003f" d="M 186.339844 329.078125 C 187.386719 320.273438 187.960938 311.007812 187.960938 301.433594 C 187.960938 244.105469 167.890625 222.203125 143.136719 222.203125 C 118.375 222.203125 98.308594 244.105469 98.308594 301.433594 C 98.308594 311.007812 98.882812 320.273438 99.929688 329.078125 L 186.339844 329.078125 " fill-opacity="1" fill-rule="nonzero"/><path fill="#000000" d="M 101.667969 327.117188 L 184.601562 327.117188 C 185.535156 318.707031 186.011719 310.078125 186.011719 301.433594 C 186.011719 251.605469 170.78125 224.15625 143.136719 224.15625 C 115.488281 224.15625 100.257812 251.605469 100.257812 301.433594 C 100.257812 310.074219 100.734375 318.703125 101.667969 327.117188 Z M 186.339844 331.03125 L 99.929688 331.03125 C 98.941406 331.03125 98.109375 330.292969 97.992188 329.308594 C 96.90625 320.199219 96.359375 310.8125 96.359375 301.433594 C 96.359375 274.078125 100.878906 253.164062 109.796875 239.261719 C 117.78125 226.820312 129.308594 220.246094 143.136719 220.246094 C 156.964844 220.246094 168.488281 226.820312 176.472656 239.261719 C 185.386719 253.164062 189.910156 274.078125 189.910156 301.433594 C 189.910156 310.824219 189.363281 320.199219 188.277344 329.308594 C 188.160156 330.292969 187.332031 331.03125 186.339844 331.03125 " fill-opacity="1" fill-rule="nonzero"/><path fill="#bf003f" d="M 167.640625 332.144531 C 167.640625 345.714844 156.667969 356.714844 143.136719 356.714844 C 129.601562 356.714844 118.632812 345.714844 118.632812 332.144531 C 118.632812 318.578125 129.601562 307.574219 143.136719 307.574219 C 156.667969 307.574219 167.640625 318.578125 167.640625 332.144531 " fill-opacity="1" fill-rule="nonzero"/><path fill="#000000" d="M 143.136719 309.53125 C 130.699219 309.53125 120.582031 319.679688 120.582031 332.144531 C 120.582031 344.617188 130.699219 354.753906 143.136719 354.753906 C 155.570312 354.753906 165.6875 344.617188 165.6875 332.144531 C 165.6875 319.679688 155.570312 309.53125 143.136719 309.53125 Z M 143.136719 358.667969 C 128.546875 358.667969 116.683594 346.773438 116.683594 332.144531 C 116.683594 317.515625 128.546875 305.621094 143.136719 305.621094 C 157.722656 305.621094 169.59375 317.515625 169.59375 332.144531 C 169.59375 346.773438 157.722656 358.667969 143.136719 358.667969 " fill-opacity="1" fill-rule="nonzero"/><path fill="#bf003f" d="M 158.140625 332.144531 C 158.140625 340.453125 151.425781 347.195312 143.136719 347.195312 C 134.84375 347.195312 128.128906 340.453125 128.128906 332.144531 C 128.128906 323.835938 134.84375 317.101562 143.136719 317.101562 C 151.425781 317.101562 158.140625 323.835938 158.140625 332.144531 " fill-opacity="1" fill-rule="nonzero"/><path fill="#000000" d="M 143.136719 319.054688 C 135.933594 319.054688 130.078125 324.929688 130.078125 332.144531 C 130.078125 339.359375 135.933594 345.234375 143.136719 345.234375 C 150.335938 345.234375 156.191406 339.359375 156.191406 332.144531 C 156.191406 324.929688 150.335938 319.054688 143.136719 319.054688 Z M 143.136719 349.148438 C 133.78125 349.148438 126.175781 341.515625 126.175781 332.144531 C 126.175781 322.769531 133.78125 315.144531 143.136719 315.144531 C 152.484375 315.144531 160.097656 322.769531 160.097656 332.144531 C 160.097656 341.515625 152.484375 349.148438 143.136719 349.148438 " fill-opacity="1" fill-rule="nonzero"/><path fill="#000000" d="M 143.136719 319.054688 C 142.058594 319.054688 141.179688 318.175781 141.179688 317.101562 L 141.179688 253.722656 C 141.179688 253.175781 141.417969 252.644531 141.832031 252.269531 L 166.332031 230.179688 C 167.136719 229.460938 168.367188 229.527344 169.09375 230.320312 C 169.8125 231.128906 169.746094 232.367188 168.945312 233.089844 L 145.085938 254.597656 L 145.085938 317.101562 C 145.085938 318.175781 144.214844 319.054688 143.136719 319.054688 " fill-opacity="1" fill-rule="nonzero"/><path fill="#000000" d="M 92.683594 367.90625 C 95.25 346.546875 104.21875 330.359375 104.402344 330.042969 C 104.933594 329.101562 104.605469 327.902344 103.671875 327.371094 C 102.734375 326.839844 101.542969 327.164062 101.007812 328.105469 C 100.636719 328.757812 91.800781 344.476562 88.867188 365.859375 C 88.777344 366.53125 88.691406 367.21875 88.613281 367.90625 L 92.683594 367.90625 " fill-opacity="1" fill-rule="nonzero"/></svg>