<svg xmlns="http://www.w3.org/2000/svg" xmlns:xlink="http://www.w3.org/1999/xlink" width="500" zoomAndPan="magnify" viewBox="0 0 375 374.999991" height="500" preserveAspectRatio="xMidYMid meet" version="1.0"><defs><clipPath id="id1"><path d="M 21.863281 29.488281 L 252 29.488281 L 252 298 L 21.863281 298 Z M 21.863281 29.488281 " clip-rule="nonzero"/></clipPath><clipPath id="id2"><path d="M 21.863281 29.488281 L 63 29.488281 L 63 65 L 21.863281 65 Z M 21.863281 29.488281 " clip-rule="nonzero"/></clipPath><clipPath id="id3"><path d="M 82 61 L 312.863281 61 L 312.863281 329.488281 L 82 329.488281 Z M 82 61 " clip-rule="nonzero"/></clipPath></defs><path stroke-linecap="butt" transform="matrix(3.75, 0, 0, 3.75, 127.499996, 187.499988)" fill="none" stroke-linejoin="miter" d="M 0.00000103267 0.00000328333 L 32.000003 0.00000328333 " stroke="#ffffff" stroke-width="1" stroke-opacity="1" stroke-miterlimit="4"/><path fill="#cb0024" d="M 25.144531 60.792969 L 25.144531 294.105469 L 248.605469 294.105469 L 248.605469 32.75 L 59.253906 32.742188 L 25.144531 60.792969 " fill-opacity="1" fill-rule="nonzero"/><g clip-path="url(#id1)"><path fill="#040505" d="M 25.144531 60.792969 L 21.910156 60.792969 L 21.910156 294.105469 C 21.910156 294.957031 22.257812 295.785156 22.855469 296.394531 C 23.460938 296.988281 24.289062 297.339844 25.144531 297.339844 L 248.605469 297.339844 C 249.457031 297.339844 250.296875 296.988281 250.890625 296.394531 C 251.5 295.785156 251.835938 294.957031 251.835938 294.105469 L 251.835938 32.75 C 251.835938 31.894531 251.5 31.054688 250.890625 30.453125 C 250.296875 29.851562 249.457031 29.507812 248.605469 29.507812 L 59.253906 29.507812 C 58.503906 29.507812 57.777344 29.765625 57.195312 30.238281 L 23.085938 58.296875 C 22.335938 58.917969 21.910156 59.824219 21.910156 60.792969 L 25.144531 60.792969 L 27.199219 63.292969 L 60.402344 35.972656 L 245.371094 35.972656 L 245.371094 290.867188 L 28.375 290.867188 L 28.375 60.792969 L 25.144531 60.792969 L 27.199219 63.292969 L 25.144531 60.792969 " fill-opacity="1" fill-rule="nonzero"/></g><g clip-path="url(#id2)"><path fill="#040505" d="M 25.144531 64.03125 L 58.980469 64.03125 C 60.753906 64.03125 62.199219 62.605469 62.214844 60.832031 L 62.484375 32.773438 C 62.5 30.988281 61.074219 29.523438 59.277344 29.507812 C 57.496094 29.492188 56.035156 30.921875 56.019531 32.710938 L 55.789062 57.558594 L 25.144531 57.558594 C 23.359375 57.558594 21.910156 59.023438 21.910156 60.792969 C 21.910156 62.582031 23.359375 64.03125 25.144531 64.03125 " fill-opacity="1" fill-rule="nonzero"/></g><path fill="#cb0024" d="M 85.980469 92.929688 L 85.980469 326.226562 L 309.453125 326.226562 L 309.453125 64.871094 L 120.089844 64.871094 L 85.980469 92.929688 " fill-opacity="1" fill-rule="nonzero"/><g clip-path="url(#id3)"><path fill="#040505" d="M 85.980469 92.929688 L 82.746094 92.929688 L 82.746094 326.226562 C 82.746094 327.082031 83.097656 327.921875 83.703125 328.515625 C 84.300781 329.125 85.125 329.460938 85.980469 329.460938 L 309.453125 329.460938 C 310.308594 329.460938 311.132812 329.125 311.742188 328.515625 C 312.335938 327.921875 312.6875 327.082031 312.6875 326.226562 L 312.6875 64.871094 C 312.6875 64.015625 312.335938 63.1875 311.742188 62.582031 C 311.132812 61.972656 310.308594 61.636719 309.453125 61.636719 L 120.089844 61.636719 C 119.351562 61.636719 118.617188 61.894531 118.046875 62.375 L 83.9375 90.433594 C 83.1875 91.054688 82.746094 91.960938 82.746094 92.929688 L 85.980469 92.929688 L 88.035156 95.429688 L 121.253906 68.105469 L 306.222656 68.105469 L 306.222656 322.992188 L 89.210938 322.992188 L 89.210938 92.929688 L 85.980469 92.929688 L 88.035156 95.429688 L 85.980469 92.929688 " fill-opacity="1" fill-rule="nonzero"/></g><path fill="#040505" d="M 281.371094 110.828125 L 114.0625 110.828125 C 112.28125 110.828125 110.832031 112.277344 110.832031 114.066406 C 110.832031 115.851562 112.28125 117.300781 114.0625 117.300781 L 281.371094 117.300781 C 283.167969 117.300781 284.601562 115.851562 284.601562 114.066406 C 284.601562 112.277344 283.167969 110.828125 281.371094 110.828125 " fill-opacity="1" fill-rule="nonzero"/><path fill="#040505" d="M 281.371094 135.210938 L 114.0625 135.210938 C 112.28125 135.210938 110.832031 136.660156 110.832031 138.449219 C 110.832031 140.234375 112.28125 141.683594 114.0625 141.683594 L 281.371094 141.683594 C 283.167969 141.683594 284.601562 140.234375 284.601562 138.449219 C 284.601562 136.660156 283.167969 135.210938 281.371094 135.210938 " fill-opacity="1" fill-rule="nonzero"/><path fill="#040505" d="M 281.371094 159.609375 L 114.0625 159.609375 C 112.28125 159.609375 110.832031 161.058594 110.832031 162.84375 C 110.832031 164.628906 112.28125 166.078125 114.0625 166.078125 L 281.371094 166.078125 C 283.167969 166.078125 284.601562 164.628906 284.601562 162.84375 C 284.601562 161.058594 283.167969 159.609375 281.371094 159.609375 " fill-opacity="1" fill-rule="nonzero"/><path fill="#040505" d="M 281.371094 183.992188 L 114.0625 183.992188 C 112.28125 183.992188 110.832031 185.441406 110.832031 187.226562 C 110.832031 189.011719 112.28125 190.460938 114.0625 190.460938 L 281.371094 190.460938 C 283.167969 190.460938 284.601562 189.011719 284.601562 187.226562 C 284.601562 185.441406 283.167969 183.992188 281.371094 183.992188 " fill-opacity="1" fill-rule="nonzero"/><path fill="#040505" d="M 281.371094 208.386719 L 114.0625 208.386719 C 112.28125 208.386719 110.832031 209.824219 110.832031 211.621094 C 110.832031 213.394531 112.28125 214.859375 114.0625 214.859375 L 281.371094 214.859375 C 283.167969 214.859375 284.601562 213.394531 284.601562 211.621094 C 284.601562 209.824219 283.167969 208.386719 281.371094 208.386719 " fill-opacity="1" fill-rule="nonzero"/><path fill="#040505" d="M 281.371094 232.769531 L 114.0625 232.769531 C 112.28125 232.769531 110.832031 234.21875 110.832031 236.007812 C 110.832031 237.792969 112.28125 239.242188 114.0625 239.242188 L 281.371094 239.242188 C 283.167969 239.242188 284.601562 237.792969 284.601562 236.007812 C 284.601562 234.21875 283.167969 232.769531 281.371094 232.769531 " fill-opacity="1" fill-rule="nonzero"/><path fill="#040505" d="M 281.371094 257.152344 L 114.0625 257.152344 C 112.28125 257.152344 110.832031 258.601562 110.832031 260.390625 C 110.832031 262.175781 112.28125 263.625 114.0625 263.625 L 281.371094 263.625 C 283.167969 263.625 284.601562 262.175781 284.601562 260.390625 C 284.601562 258.601562 283.167969 257.152344 281.371094 257.152344 " fill-opacity="1" fill-rule="nonzero"/><path fill="#040505" d="M 281.371094 281.535156 L 114.0625 281.535156 C 112.28125 281.535156 110.832031 282.984375 110.832031 284.773438 C 110.832031 286.570312 112.28125 288.007812 114.0625 288.007812 L 281.371094 288.007812 C 283.167969 288.007812 284.601562 286.570312 284.601562 284.773438 C 284.601562 282.984375 283.167969 281.535156 281.371094 281.535156 " fill-opacity="1" fill-rule="nonzero"/><path fill="#040505" d="M 85.980469 96.164062 L 119.832031 96.164062 C 121.601562 96.164062 123.039062 94.742188 123.0625 92.957031 L 123.324219 64.898438 C 123.347656 63.113281 121.914062 61.648438 120.128906 61.636719 C 118.34375 61.625 116.882812 63.046875 116.855469 64.84375 L 116.625 89.695312 L 85.980469 89.695312 C 84.195312 89.695312 82.746094 91.144531 82.746094 92.929688 C 82.746094 94.714844 84.195312 96.164062 85.980469 96.164062 " fill-opacity="1" fill-rule="nonzero"/></svg>