<svg xmlns="http://www.w3.org/2000/svg" xmlns:xlink="http://www.w3.org/1999/xlink" width="500" zoomAndPan="magnify" viewBox="0 0 375 374.999991" height="500" preserveAspectRatio="xMidYMid meet" version="1.0"><defs><clipPath id="id1"><path d="M 32 253 L 70 253 L 70 302.800781 L 32 302.800781 Z M 32 253 " clip-rule="nonzero"/></clipPath><clipPath id="id2"><path d="M 81 144 L 119 144 L 119 302.800781 L 81 302.800781 Z M 81 144 " clip-rule="nonzero"/></clipPath><clipPath id="id3"><path d="M 131 188 L 169 188 L 169 302.800781 L 131 302.800781 Z M 131 188 " clip-rule="nonzero"/></clipPath><clipPath id="id4"><path d="M 181 125 L 219 125 L 219 302.800781 L 181 302.800781 Z M 181 125 " clip-rule="nonzero"/></clipPath><clipPath id="id5"><path d="M 231 226 L 269 226 L 269 302.800781 L 231 302.800781 Z M 231 226 " clip-rule="nonzero"/></clipPath><clipPath id="id6"><path d="M 280 174 L 319 174 L 319 302.800781 L 280 302.800781 Z M 280 174 " clip-rule="nonzero"/></clipPath><clipPath id="id7"><path d="M 18.421875 173 L 56 173 L 56 211 L 18.421875 211 Z M 18.421875 173 " clip-rule="nonzero"/></clipPath><clipPath id="id8"><path d="M 192 63.550781 L 230 63.550781 L 230 101 L 192 101 Z M 192 63.550781 " clip-rule="nonzero"/></clipPath><clipPath id="id9"><path d="M 311 63.550781 L 349.171875 63.550781 L 349.171875 101 L 311 101 Z M 311 63.550781 " clip-rule="nonzero"/></clipPath></defs><path fill="#76002b" d="M 66.851562 256.171875 L 34.375 256.171875 L 34.375 300.253906 L 66.851562 300.253906 L 66.851562 256.171875 " fill-opacity="1" fill-rule="nonzero"/><g clip-path="url(#id1)"><path fill="#4c3096" d="M 36.726562 297.90625 L 64.5 297.90625 L 64.5 258.515625 L 36.726562 258.515625 Z M 66.851562 302.597656 L 34.375 302.597656 C 33.078125 302.597656 32.023438 301.542969 32.023438 300.253906 L 32.023438 256.171875 C 32.023438 254.875 33.078125 253.824219 34.375 253.824219 L 66.851562 253.824219 C 68.148438 253.824219 69.199219 254.875 69.199219 256.171875 L 69.199219 300.253906 C 69.199219 301.542969 68.148438 302.597656 66.851562 302.597656 " fill-opacity="1" fill-rule="nonzero"/></g><path fill="#c10068" d="M 116.636719 147.230469 L 84.164062 147.230469 L 84.164062 300.253906 L 116.636719 300.253906 L 116.636719 147.230469 " fill-opacity="1" fill-rule="nonzero"/><g clip-path="url(#id2)"><path fill="#4c3096" d="M 86.515625 297.90625 L 114.289062 297.90625 L 114.289062 149.574219 L 86.515625 149.574219 Z M 116.636719 302.597656 L 84.164062 302.597656 C 82.863281 302.597656 81.8125 301.542969 81.8125 300.253906 L 81.8125 147.230469 C 81.8125 145.9375 82.863281 144.882812 84.164062 144.882812 L 116.636719 144.882812 C 117.933594 144.882812 118.988281 145.9375 118.988281 147.230469 L 118.988281 300.253906 C 118.988281 301.542969 117.933594 302.597656 116.636719 302.597656 " fill-opacity="1" fill-rule="nonzero"/></g><path fill="#76002b" d="M 166.421875 190.457031 L 133.949219 190.457031 L 133.949219 300.253906 L 166.421875 300.253906 L 166.421875 190.457031 " fill-opacity="1" fill-rule="nonzero"/><g clip-path="url(#id3)"><path fill="#4c3096" d="M 136.296875 297.90625 L 164.070312 297.90625 L 164.070312 192.800781 L 136.296875 192.800781 Z M 166.421875 302.597656 L 133.949219 302.597656 C 132.648438 302.597656 131.597656 301.542969 131.597656 300.253906 L 131.597656 190.457031 C 131.597656 189.160156 132.648438 188.109375 133.949219 188.109375 L 166.421875 188.109375 C 167.722656 188.109375 168.773438 189.160156 168.773438 190.457031 L 168.773438 300.253906 C 168.773438 301.542969 167.722656 302.597656 166.421875 302.597656 " fill-opacity="1" fill-rule="nonzero"/></g><path fill="#c10068" d="M 216.203125 127.628906 L 183.730469 127.628906 L 183.730469 300.253906 L 216.203125 300.253906 L 216.203125 127.628906 " fill-opacity="1" fill-rule="nonzero"/><g clip-path="url(#id4)"><path fill="#4c3096" d="M 186.082031 297.90625 L 213.855469 297.90625 L 213.855469 129.972656 L 186.082031 129.972656 Z M 216.203125 302.597656 L 183.730469 302.597656 C 182.429688 302.597656 181.378906 301.542969 181.378906 300.253906 L 181.378906 127.628906 C 181.378906 126.335938 182.429688 125.28125 183.730469 125.28125 L 216.203125 125.28125 C 217.503906 125.28125 218.554688 126.335938 218.554688 127.628906 L 218.554688 300.253906 C 218.554688 301.542969 217.503906 302.597656 216.203125 302.597656 " fill-opacity="1" fill-rule="nonzero"/></g><path fill="#76002b" d="M 265.996094 228.449219 L 233.519531 228.449219 L 233.519531 300.238281 L 265.996094 300.238281 L 265.996094 228.449219 " fill-opacity="1" fill-rule="nonzero"/><g clip-path="url(#id5)"><path fill="#4c3096" d="M 235.875 297.894531 L 263.648438 297.894531 L 263.648438 230.796875 L 235.875 230.796875 Z M 265.996094 302.585938 L 233.523438 302.585938 C 232.222656 302.585938 231.171875 301.53125 231.171875 300.238281 L 231.171875 228.449219 C 231.171875 227.15625 232.222656 226.105469 233.523438 226.105469 L 265.996094 226.105469 C 267.292969 226.105469 268.347656 227.15625 268.347656 228.449219 L 268.347656 300.238281 C 268.347656 300.859375 268.101562 301.457031 267.660156 301.898438 C 267.21875 302.335938 266.617188 302.585938 265.996094 302.585938 " fill-opacity="1" fill-rule="nonzero"/></g><path fill="#c10068" d="M 315.777344 176.941406 L 283.300781 176.941406 L 283.300781 300.253906 L 315.777344 300.253906 L 315.777344 176.941406 " fill-opacity="1" fill-rule="nonzero"/><g clip-path="url(#id6)"><path fill="#4c3096" d="M 285.652344 297.90625 L 313.425781 297.90625 L 313.425781 179.285156 L 285.652344 179.285156 Z M 315.777344 302.597656 L 283.300781 302.597656 C 282.003906 302.597656 280.953125 301.542969 280.953125 300.253906 L 280.953125 176.9375 C 280.953125 175.644531 282.003906 174.59375 283.300781 174.59375 L 315.777344 174.59375 C 317.074219 174.59375 318.128906 175.644531 318.128906 176.9375 L 318.128906 300.253906 C 318.128906 301.542969 317.074219 302.597656 315.777344 302.597656 " fill-opacity="1" fill-rule="nonzero"/></g><path fill="#4c3096" d="M 37.058594 195.511719 C 36.597656 195.511719 36.140625 195.378906 35.734375 195.101562 C 34.660156 194.371094 34.386719 192.910156 35.121094 191.84375 L 93.324219 106.84375 C 93.71875 106.265625 94.351562 105.894531 95.046875 105.828125 C 95.746094 105.761719 96.433594 106.011719 96.925781 106.503906 L 146.53125 155.933594 L 207.949219 81.519531 C 208.410156 80.964844 209.089844 80.617188 209.8125 80.667969 C 210.535156 80.683594 211.210938 81.03125 211.640625 81.601562 L 266.675781 154.753906 L 328.609375 81.503906 C 329.445312 80.507812 330.921875 80.382812 331.917969 81.21875 C 332.910156 82.058594 333.039062 83.535156 332.199219 84.527344 L 268.367188 160.03125 C 267.902344 160.574219 267.21875 160.875 266.503906 160.863281 C 265.785156 160.839844 265.121094 160.496094 264.6875 159.925781 L 209.675781 86.808594 L 148.515625 160.910156 C 148.09375 161.421875 147.476562 161.730469 146.816406 161.765625 C 146.15625 161.785156 145.507812 161.546875 145.039062 161.078125 L 95.609375 111.824219 L 39 194.488281 C 38.542969 195.15625 37.804688 195.511719 37.058594 195.511719 " fill-opacity="1" fill-rule="nonzero"/><path fill="#ffffff" d="M 53.402344 192.265625 C 53.402344 201.273438 46.082031 208.570312 37.058594 208.570312 C 28.035156 208.570312 20.714844 201.273438 20.714844 192.265625 C 20.714844 183.257812 28.035156 175.960938 37.058594 175.960938 C 46.082031 175.960938 53.402344 183.257812 53.402344 192.265625 " fill-opacity="1" fill-rule="nonzero"/><g clip-path="url(#id7)"><path fill="#4c3096" d="M 37.058594 178.308594 C 29.34375 178.308594 23.066406 184.570312 23.066406 192.265625 C 23.066406 199.960938 29.34375 206.222656 37.058594 206.222656 C 44.773438 206.222656 51.050781 199.960938 51.050781 192.265625 C 51.050781 184.570312 44.773438 178.308594 37.058594 178.308594 Z M 37.058594 210.914062 C 26.75 210.914062 18.367188 202.550781 18.367188 192.265625 C 18.367188 181.980469 26.75 173.617188 37.058594 173.617188 C 47.363281 173.617188 55.753906 181.980469 55.753906 192.265625 C 55.753906 202.550781 47.363281 210.914062 37.058594 210.914062 " fill-opacity="1" fill-rule="nonzero"/></g><path fill="#ffffff" d="M 163.042969 158.519531 C 163.042969 167.523438 155.726562 174.820312 146.703125 174.820312 C 137.675781 174.820312 130.363281 167.523438 130.363281 158.519531 C 130.363281 149.511719 137.675781 142.214844 146.703125 142.214844 C 155.726562 142.214844 163.042969 149.511719 163.042969 158.519531 " fill-opacity="1" fill-rule="nonzero"/><path fill="#4c3096" d="M 146.703125 144.558594 C 138.988281 144.558594 132.710938 150.820312 132.710938 158.519531 C 132.710938 166.214844 138.988281 172.476562 146.703125 172.476562 C 154.414062 172.476562 160.691406 166.214844 160.691406 158.519531 C 160.691406 150.820312 154.414062 144.558594 146.703125 144.558594 Z M 146.703125 177.167969 C 136.394531 177.167969 128.011719 168.800781 128.011719 158.519531 C 128.011719 148.234375 136.394531 139.867188 146.703125 139.867188 C 157.007812 139.867188 165.394531 148.234375 165.394531 158.519531 C 165.394531 168.800781 157.007812 177.167969 146.703125 177.167969 " fill-opacity="1" fill-rule="nonzero"/><path fill="#ffffff" d="M 227.335938 82.304688 C 227.335938 91.304688 220.019531 98.609375 210.992188 98.609375 C 201.96875 98.609375 194.652344 91.304688 194.652344 82.304688 C 194.652344 73.296875 201.96875 66 210.992188 66 C 220.019531 66 227.335938 73.296875 227.335938 82.304688 " fill-opacity="1" fill-rule="nonzero"/><g clip-path="url(#id8)"><path fill="#4c3096" d="M 210.992188 68.339844 C 203.28125 68.339844 197.003906 74.601562 197.003906 82.304688 C 197.003906 90 203.28125 96.261719 210.992188 96.261719 C 218.707031 96.261719 224.984375 90 224.984375 82.304688 C 224.984375 74.601562 218.707031 68.339844 210.992188 68.339844 Z M 210.992188 100.953125 C 200.6875 100.953125 192.300781 92.589844 192.300781 82.304688 C 192.300781 72.019531 200.6875 63.648438 210.992188 63.648438 C 221.300781 63.648438 229.683594 72.019531 229.683594 82.304688 C 229.683594 92.589844 221.300781 100.953125 210.992188 100.953125 " fill-opacity="1" fill-rule="nonzero"/></g><path fill="#ffffff" d="M 346.746094 82.304688 C 346.746094 91.304688 339.429688 98.609375 330.40625 98.609375 C 321.378906 98.609375 314.0625 91.304688 314.0625 82.304688 C 314.0625 73.296875 321.378906 66 330.40625 66 C 339.429688 66 346.746094 73.296875 346.746094 82.304688 " fill-opacity="1" fill-rule="nonzero"/><g clip-path="url(#id9)"><path fill="#4c3096" d="M 330.40625 68.339844 C 322.691406 68.339844 316.414062 74.601562 316.414062 82.304688 C 316.414062 90 322.691406 96.261719 330.40625 96.261719 C 338.117188 96.261719 344.394531 90 344.394531 82.304688 C 344.394531 74.601562 338.117188 68.339844 330.40625 68.339844 Z M 330.40625 100.953125 C 320.097656 100.953125 311.714844 92.589844 311.714844 82.304688 C 311.714844 72.019531 320.097656 63.648438 330.40625 63.648438 C 340.710938 63.648438 349.09375 72.019531 349.09375 82.304688 C 349.09375 92.589844 340.710938 100.953125 330.40625 100.953125 " fill-opacity="1" fill-rule="nonzero"/></g></svg>