<svg xmlns="http://www.w3.org/2000/svg" xmlns:xlink="http://www.w3.org/1999/xlink" width="500" zoomAndPan="magnify" viewBox="0 0 375 374.999991" height="500" preserveAspectRatio="xMidYMid meet" version="1.0"><defs><clipPath id="id1"><path d="M 243 224 L 344.886719 224 L 344.886719 241 L 243 241 Z M 243 224 " clip-rule="nonzero"/></clipPath><clipPath id="id2"><path d="M 108 27.023438 L 218 27.023438 L 218 90 L 108 90 Z M 108 27.023438 " clip-rule="nonzero"/></clipPath></defs><path stroke-linecap="butt" transform="matrix(3.75, 0, 0, 3.75, 127.499996, 187.499988)" fill="none" stroke-linejoin="miter" d="M 0.00000103267 0.00000328333 L 32.000003 0.00000328333 " stroke="#ffffff" stroke-width="1" stroke-opacity="1" stroke-miterlimit="4"/><path fill="#c40029" d="M 247.71875 325.390625 C 244.242188 325.390625 241.085938 327.453125 239.671875 330.609375 C 239.15625 331.769531 238.898438 332.996094 238.898438 334.21875 C 238.898438 335.636719 239.21875 337.054688 239.929688 338.34375 C 242.183594 342.660156 247.527344 344.273438 251.839844 342.015625 C 253.386719 341.179688 254.671875 339.890625 255.511719 338.34375 C 256.152344 337.054688 256.539062 335.636719 256.539062 334.21875 C 256.539062 332.996094 256.28125 331.769531 255.765625 330.609375 C 254.351562 327.453125 251.195312 325.390625 247.71875 325.390625 Z M 247.71875 325.390625 " fill-opacity="1" fill-rule="nonzero"/><path fill="#c40029" d="M 208.894531 127.164062 C 206.640625 123.8125 202.839844 121.816406 198.785156 121.816406 L 127.894531 121.816406 C 123.835938 121.816406 120.039062 123.8125 117.722656 127.164062 C 116.304688 129.226562 115.53125 131.675781 115.53125 134.191406 L 115.53125 134.898438 C 115.917969 141.40625 121.328125 146.5625 127.894531 146.5625 L 198.785156 146.5625 C 205.351562 146.5625 210.761719 141.472656 211.082031 134.898438 C 211.082031 134.640625 211.148438 134.449219 211.148438 134.191406 C 211.148438 131.675781 210.375 129.226562 208.894531 127.164062 Z M 192.28125 137.347656 L 134.398438 137.347656 L 134.398438 131.03125 L 192.28125 131.03125 Z M 192.28125 137.347656 " fill-opacity="1" fill-rule="nonzero"/><path fill="#c40029" d="M 308.242188 325.390625 C 304.765625 325.390625 301.613281 327.453125 300.195312 330.609375 C 299.679688 331.769531 299.421875 332.996094 299.421875 334.21875 C 299.421875 335.636719 299.808594 337.054688 300.453125 338.34375 C 302.707031 342.660156 308.050781 344.273438 312.363281 342.015625 C 313.910156 341.179688 315.195312 339.890625 316.035156 338.34375 C 316.742188 337.054688 317.0625 335.636719 317.0625 334.21875 C 317.0625 332.996094 316.808594 331.769531 316.292969 330.609375 C 314.875 327.453125 311.71875 325.390625 308.242188 325.390625 Z M 308.242188 325.390625 " fill-opacity="1" fill-rule="nonzero"/><path fill="#c40029" d="M 211.148438 208.683594 C 211.148438 201.855469 205.609375 196.3125 198.785156 196.3125 L 127.894531 196.3125 C 121.070312 196.3125 115.53125 201.855469 115.53125 208.683594 C 115.53125 215.515625 121.070312 221.058594 127.894531 221.058594 L 198.785156 221.058594 C 205.609375 221.058594 211.148438 215.515625 211.148438 208.683594 Z M 192.28125 211.84375 L 134.398438 211.84375 L 134.398438 205.464844 L 192.28125 205.464844 Z M 192.28125 211.84375 " fill-opacity="1" fill-rule="nonzero"/><path fill="#c40029" d="M 82.628906 284.984375 L 84.5625 284.984375 C 86.6875 284.984375 88.425781 286.726562 88.425781 288.851562 L 88.425781 343.046875 L 100.402344 343.046875 L 100.402344 301.933594 C 100.402344 299.808594 102.140625 298.066406 104.265625 298.066406 L 139.871094 298.066406 C 141.996094 298.066406 143.734375 299.808594 143.734375 301.933594 L 143.734375 343.046875 L 155.773438 343.046875 L 155.773438 288.851562 C 155.773438 286.726562 157.511719 284.984375 159.636719 284.984375 L 161.503906 284.984375 L 122.097656 255.082031 Z M 82.628906 284.984375 " fill-opacity="1" fill-rule="nonzero"/><path fill="#c40029" d="M 249.523438 167.441406 L 249.714844 217.257812 L 276.4375 217.257812 C 278.175781 217.257812 279.785156 218.222656 280.683594 219.703125 C 281.070312 220.476562 281.328125 221.316406 281.394531 222.152344 C 281.328125 223.957031 282.746094 225.375 284.546875 225.441406 C 284.546875 225.441406 284.613281 225.441406 284.613281 225.441406 L 297.234375 225.441406 C 297.75 225.441406 298.199219 225.3125 298.648438 225.117188 C 298.972656 224.988281 299.292969 224.730469 299.550781 224.472656 C 299.808594 224.28125 299.9375 224.023438 300.066406 223.765625 C 300.386719 223.3125 300.515625 222.734375 300.515625 222.152344 C 300.515625 221.765625 300.582031 221.378906 300.644531 220.992188 C 300.839844 220.089844 301.355469 219.316406 301.996094 218.671875 C 302.898438 217.707031 304.1875 217.191406 305.476562 217.191406 L 335.609375 217.0625 L 335.414062 167.3125 C 335.480469 165.445312 334.707031 163.574219 333.355469 162.285156 C 332.003906 160.933594 330.199219 160.160156 328.269531 160.160156 L 256.667969 160.480469 C 252.804688 160.480469 249.652344 163.574219 249.523438 167.441406 Z M 249.523438 167.441406 " fill-opacity="1" fill-rule="nonzero"/><path fill="#c40029" d="M 169.683594 68.265625 C 169.683594 68.683594 169.640625 69.097656 169.558594 69.507812 C 169.476562 69.921875 169.355469 70.320312 169.195312 70.707031 C 169.035156 71.09375 168.839844 71.460938 168.605469 71.808594 C 168.375 72.15625 168.109375 72.480469 167.816406 72.777344 C 167.519531 73.074219 167.195312 73.335938 166.847656 73.570312 C 166.5 73.800781 166.132812 74 165.746094 74.160156 C 165.359375 74.320312 164.960938 74.441406 164.550781 74.523438 C 164.140625 74.605469 163.726562 74.644531 163.308594 74.644531 C 162.890625 74.644531 162.472656 74.605469 162.0625 74.523438 C 161.652344 74.441406 161.253906 74.320312 160.867188 74.160156 C 160.480469 74 160.113281 73.800781 159.765625 73.570312 C 159.417969 73.335938 159.097656 73.074219 158.800781 72.777344 C 158.503906 72.480469 158.238281 72.15625 158.007812 71.808594 C 157.773438 71.460938 157.578125 71.09375 157.417969 70.707031 C 157.257812 70.320312 157.136719 69.921875 157.054688 69.507812 C 156.972656 69.097656 156.933594 68.683594 156.933594 68.265625 C 156.933594 67.847656 156.972656 67.429688 157.054688 67.019531 C 157.136719 66.609375 157.257812 66.210938 157.417969 65.824219 C 157.578125 65.4375 157.773438 65.070312 158.007812 64.71875 C 158.238281 64.371094 158.503906 64.050781 158.800781 63.753906 C 159.097656 63.457031 159.417969 63.191406 159.765625 62.960938 C 160.113281 62.726562 160.480469 62.53125 160.867188 62.371094 C 161.253906 62.210938 161.652344 62.089844 162.0625 62.007812 C 162.472656 61.925781 162.890625 61.886719 163.308594 61.886719 C 163.726562 61.886719 164.140625 61.925781 164.550781 62.007812 C 164.960938 62.089844 165.359375 62.210938 165.746094 62.371094 C 166.132812 62.53125 166.5 62.726562 166.847656 62.960938 C 167.195312 63.191406 167.519531 63.457031 167.816406 63.753906 C 168.109375 64.050781 168.375 64.371094 168.605469 64.71875 C 168.839844 65.070312 169.035156 65.4375 169.195312 65.824219 C 169.355469 66.210938 169.476562 66.609375 169.558594 67.019531 C 169.640625 67.429688 169.683594 67.847656 169.683594 68.265625 Z M 169.683594 68.265625 " fill-opacity="1" fill-rule="nonzero"/><g clip-path="url(#id1)"><path fill="#c40029" d="M 344.6875 224.601562 L 343.398438 224.601562 L 310.238281 224.730469 L 307.921875 224.730469 L 307.535156 225.890625 C 307.214844 226.859375 306.699219 227.695312 306.117188 228.535156 L 305.089844 229.757812 C 304.378906 230.402344 303.605469 230.980469 302.769531 231.496094 C 301.097656 232.464844 299.230469 232.980469 297.296875 232.980469 L 284.613281 232.980469 C 282.167969 232.980469 279.785156 232.140625 277.851562 230.660156 C 277.015625 229.949219 276.242188 229.179688 275.597656 228.277344 C 274.890625 227.246094 274.3125 226.019531 273.988281 224.796875 L 243.082031 224.925781 L 243.082031 229.886719 C 243.148438 235.816406 247.914062 240.519531 253.835938 240.585938 L 253.898438 240.585938 L 334 240.328125 C 339.921875 240.261719 344.6875 235.429688 344.6875 229.5 Z M 344.6875 224.601562 " fill-opacity="1" fill-rule="nonzero"/></g><g clip-path="url(#id2)"><path fill="#c40029" d="M 120.746094 87.984375 L 159.445312 88.5 L 159.445312 81.863281 C 151.976562 79.734375 147.597656 71.9375 149.722656 64.398438 C 151.847656 56.921875 159.636719 52.542969 167.171875 54.667969 C 174.640625 56.792969 179.019531 64.59375 176.894531 72.132812 C 175.539062 76.835938 171.871094 80.507812 167.171875 81.863281 L 167.171875 88.628906 L 202.519531 89.078125 C 210.890625 89.078125 217.714844 82.570312 217.714844 74.644531 C 217.648438 68.136719 213.273438 62.464844 207.027344 60.789062 C 205.222656 60.273438 204.066406 58.46875 204.257812 56.601562 C 204.449219 55.503906 204.515625 54.410156 204.515625 53.3125 C 204.515625 38.816406 191.703125 27.023438 175.992188 27.023438 C 164.917969 27.023438 154.742188 33.015625 150.109375 42.230469 C 149.078125 44.164062 146.695312 44.871094 144.828125 43.839844 C 144.765625 43.839844 144.699219 43.777344 144.636719 43.777344 C 142.1875 42.292969 139.355469 41.519531 136.457031 41.519531 C 127.957031 41.519531 121.070312 48.09375 121.070312 56.148438 C 121.070312 57.695312 121.328125 59.242188 121.84375 60.660156 C 122.164062 61.757812 122.035156 62.917969 121.457031 63.882812 C 120.875 64.851562 119.910156 65.558594 118.75 65.6875 C 113.085938 66.652344 108.898438 71.292969 108.898438 76.769531 C 108.898438 82.25 114.242188 87.984375 120.746094 87.984375 Z M 120.746094 87.984375 " fill-opacity="1" fill-rule="nonzero"/></g><path fill="#c40029" d="M 75.675781 163.382812 C 74.128906 161.835938 72.070312 160.996094 69.945312 160.996094 L 69.882812 160.996094 L 38.203125 161.125 C 33.695312 161.125 30.089844 164.734375 30.089844 169.246094 C 30.089844 169.246094 30.089844 169.3125 30.089844 169.3125 L 30.347656 235.429688 C 30.347656 237.554688 31.183594 239.683594 32.730469 241.164062 C 34.273438 242.710938 36.335938 243.546875 38.523438 243.546875 L 70.203125 243.417969 C 72.328125 243.417969 74.386719 242.515625 75.933594 241.035156 C 77.480469 239.488281 78.316406 237.425781 78.316406 235.234375 L 78.058594 169.117188 C 78.058594 166.992188 77.222656 164.929688 75.675781 163.382812 Z M 49.664062 232.335938 L 49.664062 222.992188 L 58.933594 222.992188 L 58.933594 232.335938 Z M 49.664062 232.335938 " fill-opacity="1" fill-rule="nonzero"/><path fill="#c40029" d="M 326.402344 312.113281 L 314.617188 312.113281 C 311.140625 312.113281 307.921875 310.375 306.054688 307.476562 L 298.648438 296.132812 C 298.199219 295.425781 297.425781 295.039062 296.589844 295.039062 L 256.347656 295.039062 C 255.382812 295.039062 254.480469 295.617188 254.09375 296.519531 L 249.585938 306.765625 C 247.976562 310.503906 244.304688 312.886719 240.25 312.886719 L 229.5625 312.886719 C 228.210938 312.886719 227.113281 313.984375 227.113281 315.335938 L 227.113281 317.65625 L 227.308594 317.65625 L 227.308594 325.390625 L 227.050781 325.390625 L 227.050781 328.097656 C 227.050781 328.742188 227.308594 329.386719 227.757812 329.835938 C 228.210938 330.351562 228.855469 330.609375 229.5625 330.609375 L 231.558594 330.609375 C 233.617188 321.71875 242.503906 316.109375 251.390625 318.171875 C 257.570312 319.589844 262.398438 324.421875 263.816406 330.609375 L 292.082031 330.609375 C 294.011719 321.652344 302.898438 316.046875 311.785156 317.980469 C 318.09375 319.398438 322.988281 324.292969 324.40625 330.609375 L 326.402344 330.609375 C 327.753906 330.546875 328.847656 329.449219 328.910156 328.097656 L 328.910156 314.5625 C 328.847656 313.210938 327.753906 312.113281 326.402344 312.113281 Z M 326.402344 312.113281 " fill-opacity="1" fill-rule="nonzero"/><path fill="#c40029" d="M 159.445312 114.082031 L 167.171875 114.082031 L 167.171875 96.363281 L 159.445312 96.363281 Z M 159.445312 114.082031 " fill-opacity="1" fill-rule="nonzero"/><path fill="#c40029" d="M 196.144531 303.027344 L 196.144531 228.792969 L 188.417969 228.792969 L 188.417969 303.027344 C 188.417969 315.335938 198.398438 325.324219 210.695312 325.390625 L 219.324219 325.390625 L 219.324219 317.65625 L 210.695312 317.65625 C 202.648438 317.59375 196.144531 311.085938 196.144531 303.027344 Z M 196.144531 303.027344 " fill-opacity="1" fill-rule="nonzero"/><path fill="#c40029" d="M 218.875 134.191406 C 218.875 134.449219 218.808594 134.640625 218.808594 134.898438 L 288.476562 134.898438 C 292.984375 134.898438 296.652344 138.570312 296.652344 143.082031 C 296.652344 143.082031 296.652344 143.148438 296.652344 143.148438 L 296.652344 152.363281 L 304.378906 152.363281 L 304.378906 143.148438 C 304.378906 134.320312 297.296875 127.230469 288.476562 127.164062 L 217.585938 127.164062 C 218.421875 129.421875 218.875 131.804688 218.875 134.191406 Z M 218.875 134.191406 " fill-opacity="1" fill-rule="nonzero"/><path fill="#c40029" d="M 60.867188 143.148438 C 60.867188 138.570312 64.535156 134.898438 69.109375 134.898438 L 107.804688 134.898438 L 107.804688 134.191406 C 107.804688 131.804688 108.257812 129.421875 109.09375 127.164062 L 69.109375 127.164062 C 60.289062 127.164062 53.140625 134.320312 53.140625 143.148438 L 53.140625 153.328125 L 60.867188 153.328125 Z M 60.867188 143.148438 " fill-opacity="1" fill-rule="nonzero"/><path fill="#c40029" d="M 138.261719 257.660156 L 138.261719 228.792969 L 130.535156 228.792969 L 130.535156 251.796875 Z M 138.261719 257.660156 " fill-opacity="1" fill-rule="nonzero"/></svg>