<svg xmlns="http://www.w3.org/2000/svg" xmlns:xlink="http://www.w3.org/1999/xlink" width="500" zoomAndPan="magnify" viewBox="0 0 375 374.999991" height="500" preserveAspectRatio="xMidYMid meet" version="1.0"><defs><clipPath id="id1"><path d="M 7.113281 44 L 165 44 L 165 324 L 7.113281 324 Z M 7.113281 44 " clip-rule="nonzero"/></clipPath><clipPath id="id2"><path d="M 189 37.5 L 296 37.5 L 296 333 L 189 333 Z M 189 37.5 " clip-rule="nonzero"/></clipPath><clipPath id="id3"><path d="M 212 83 L 367.863281 83 L 367.863281 293 L 212 293 Z M 212 83 " clip-rule="nonzero"/></clipPath></defs><g clip-path="url(#id1)"><path fill="#c10068" d="M 137.566406 241.851562 C 135.871094 244.699219 132.417969 245.273438 129.574219 244.121094 C 119.316406 237.855469 105.605469 238.972656 96.496094 245.847656 C 95.34375 246.390625 94.195312 246.96875 93.078125 246.96875 C 91.351562 246.96875 89.625 246.390625 88.507812 244.699219 C 86.78125 242.394531 87.355469 238.398438 89.625 236.703125 C 95.34375 232.707031 101.066406 229.863281 107.90625 228.710938 C 108.480469 218.988281 111.902344 209.878906 118.164062 202.457031 C 120.433594 200.15625 123.886719 199.582031 126.15625 201.882812 C 128.425781 204.152344 129 207.605469 126.730469 209.878906 C 122.160156 214.992188 119.890625 221.292969 119.316406 228.136719 C 125.003906 228.710938 130.726562 230.40625 135.871094 233.28125 C 138.140625 235.554688 138.714844 238.972656 137.566406 241.851562 Z M 82.242188 164.21875 C 78.789062 164.21875 76.519531 161.914062 76.519531 158.492188 C 76.519531 155.070312 78.789062 152.800781 82.242188 152.800781 C 94.195312 152.800781 105.605469 146.503906 111.902344 135.664062 C 113.59375 132.816406 117.015625 132.242188 119.890625 133.394531 C 122.734375 135.085938 123.3125 138.539062 122.160156 141.386719 C 119.890625 144.808594 117.589844 148.230469 114.171875 151.074219 C 118.164062 155.070312 121.585938 159.644531 123.3125 164.792969 C 124.429688 167.636719 122.734375 171.058594 119.316406 172.210938 C 118.742188 172.210938 118.164062 172.210938 117.589844 172.210938 C 115.320312 172.210938 113.050781 170.484375 111.902344 168.214844 C 110.75 164.21875 107.90625 160.796875 104.484375 157.917969 C 97.648438 161.914062 90.199219 164.21875 82.242188 164.21875 Z M 129 44.34375 C 110.75 44.34375 95.921875 57.484375 93.652344 74.589844 C 96.496094 74.589844 98.765625 77.4375 98.765625 80.316406 C 98.765625 96.84375 112.476562 110.5625 129 110.5625 C 132.417969 110.5625 134.71875 112.832031 134.71875 116.253906 C 134.71875 119.675781 132.417969 121.976562 129 121.976562 C 106.179688 121.976562 87.355469 103.144531 87.355469 80.316406 C 87.355469 79.738281 87.355469 79.738281 87.355469 79.164062 C 85.660156 79.164062 83.9375 78.585938 82.242188 78.585938 C 50.855469 78.585938 33.726562 111.714844 47.4375 137.390625 C 47.980469 137.390625 47.980469 137.390625 48.554688 137.390625 C 54.851562 137.390625 61.117188 138.539062 66.804688 140.8125 C 69.679688 141.960938 70.800781 145.382812 69.679688 148.230469 C 68.53125 150.5 66.804688 151.652344 64.535156 151.652344 C 63.960938 151.652344 62.808594 151.652344 62.265625 151.074219 C 57.695312 149.378906 53.125 148.230469 48.554688 148.230469 C 45.710938 148.230469 43.441406 145.925781 42.867188 143.082031 C 21.742188 145.925781 7.488281 163.640625 7.488281 183.625 C 7.488281 204.152344 22.890625 222.441406 45.136719 224.136719 C 45.136719 222.988281 45.710938 221.867188 46.285156 220.714844 C 54.851562 209.878906 67.957031 203.035156 82.242188 203.035156 C 85.660156 203.035156 87.929688 205.304688 87.929688 208.726562 C 87.929688 212.148438 85.660156 214.449219 82.242188 214.449219 C 71.949219 214.449219 61.691406 218.988281 55.394531 227.558594 C 54.277344 229.285156 52.550781 229.863281 50.855469 229.863281 C 49.707031 229.863281 48.554688 229.285156 47.980469 228.710938 C 44.5625 234.402344 42.867188 241.277344 42.867188 248.695312 C 42.867188 268.648438 57.695312 285.210938 77.097656 288.054688 C 77.097656 285.210938 79.941406 282.941406 82.785156 282.941406 C 93.652344 282.941406 103.910156 277.792969 110.175781 269.222656 C 111.902344 266.953125 115.320312 266.375 118.164062 268.105469 C 120.433594 269.796875 121.007812 273.796875 119.316406 276.097656 C 113.050781 284.632812 103.910156 290.933594 93.652344 293.203125 C 96.496094 310.34375 111.324219 323.453125 129 323.453125 C 148.976562 323.453125 164.953125 307.464844 164.953125 287.511719 L 164.953125 80.316406 C 164.953125 60.332031 148.976562 44.34375 129 44.34375 " fill-opacity="1" fill-rule="nonzero"/></g><g clip-path="url(#id2)"><path fill="#c10068" d="M 253.390625 298.925781 C 244.25 298.925781 236.257812 306.34375 236.257812 316.035156 L 222.578125 320.605469 L 200.910156 285.785156 L 200.910156 143.082031 L 219.160156 161.339844 C 220.308594 162.488281 221.429688 163.066406 223.15625 163.066406 L 229.992188 163.066406 C 232.261719 169.910156 238.527344 174.480469 245.972656 174.480469 C 255.65625 174.480469 263.074219 167.0625 263.074219 157.375 C 263.074219 147.652344 255.65625 140.234375 245.972656 140.234375 C 238.527344 140.234375 232.261719 144.808594 229.992188 151.652344 L 226 151.652344 L 201.484375 127.125 L 201.484375 79.164062 L 231.71875 55.183594 L 250.542969 58.027344 C 251.664062 66.023438 259.078125 72.320312 267.066406 72.320312 C 268.21875 72.320312 269.367188 72.320312 270.519531 71.746094 L 282.472656 91.730469 L 276.207031 98.570312 C 274.484375 97.996094 272.214844 97.421875 269.945312 97.421875 C 260.804688 97.421875 252.8125 104.839844 252.8125 114.558594 C 252.8125 124.25 260.226562 131.667969 269.945312 131.667969 C 279.628906 131.667969 287.042969 124.25 287.042969 114.558594 C 287.042969 111.714844 286.46875 108.835938 284.773438 106.566406 L 293.882812 96.300781 C 295.609375 94.574219 295.609375 91.730469 294.457031 89.425781 L 280.203125 65.445312 C 282.472656 62.601562 284.199219 58.601562 284.199219 54.605469 C 284.199219 44.917969 276.75 37.5 267.066406 37.5 C 260.804688 37.5 255.113281 40.921875 252.238281 46.070312 L 230.570312 42.648438 C 228.84375 42.648438 227.117188 42.648438 226 43.765625 L 191.769531 71.167969 C 190.617188 72.320312 189.46875 74.015625 189.46875 75.742188 L 189.46875 287.511719 C 189.46875 288.632812 190.042969 289.78125 190.042969 290.359375 L 215.164062 330.292969 C 216.316406 332.023438 218.007812 333.171875 220.308594 333.171875 C 220.851562 333.171875 221.429688 333.171875 222.003906 332.597656 L 239.710938 326.328125 C 242.523438 330.292969 247.667969 332.597656 252.8125 332.597656 C 262.496094 332.597656 269.945312 324.601562 269.945312 315.457031 C 269.945312 306.921875 262.496094 298.925781 253.390625 298.925781 " fill-opacity="1" fill-rule="nonzero"/></g><g clip-path="url(#id3)"><path fill="#c10068" d="M 355.5 190.46875 L 355.5 168.789062 C 355.5 167.0625 354.925781 165.335938 353.234375 164.21875 L 317.851562 135.664062 L 318.429688 116.828125 C 325.265625 114.558594 330.414062 108.261719 330.414062 100.84375 C 330.414062 91.730469 322.964844 83.734375 313.28125 83.734375 C 303.597656 83.734375 296.152344 91.730469 296.152344 100.84375 C 296.152344 108.261719 300.753906 113.984375 307.019531 116.828125 L 306.441406 136.8125 L 297.878906 148.230469 C 296.152344 147.652344 294.457031 147.652344 292.730469 147.652344 C 283.625 147.652344 275.632812 155.070312 275.632812 164.792969 C 275.632812 174.480469 283.046875 181.898438 292.730469 181.898438 C 302.449219 181.898438 309.863281 174.480469 309.863281 164.792969 C 309.863281 161.339844 308.742188 157.917969 307.019531 155.070312 L 312.707031 147.078125 L 343.515625 171.636719 L 343.515625 190.46875 C 336.675781 192.738281 332.105469 199.039062 332.105469 206.457031 C 332.105469 207.605469 332.105469 208.152344 332.105469 208.726562 L 309.289062 220.714844 L 278.476562 213.296875 C 277.902344 204.730469 270.519531 197.886719 261.378906 197.886719 C 252.238281 197.886719 244.25 205.304688 244.25 214.992188 C 244.25 224.136719 252.238281 232.132812 261.378906 232.132812 C 267.066406 232.132812 272.789062 229.285156 275.632812 224.714844 L 307.5625 232.707031 L 309.289062 252.691406 C 303.597656 255.539062 299.601562 261.261719 299.601562 268.105469 L 299.601562 268.648438 L 267.644531 281.214844 L 247.09375 269.796875 C 247.09375 268.648438 247.09375 268.105469 247.09375 266.953125 C 247.09375 257.265625 239.710938 249.8125 229.992188 249.8125 C 220.308594 249.8125 212.863281 257.265625 212.863281 266.953125 C 212.863281 276.640625 220.308594 284.058594 229.992188 284.058594 C 234.5625 284.058594 237.984375 282.363281 241.402344 279.519531 L 264.796875 292.054688 C 265.375 292.628906 266.492188 292.628906 267.644531 292.628906 C 268.21875 292.628906 269.367188 292.628906 269.945312 292.054688 L 304.75 278.367188 C 307.5625 281.789062 312.132812 284.058594 317.277344 284.058594 C 326.960938 284.058594 334.40625 276.640625 334.40625 266.953125 C 334.40625 258.957031 328.6875 252.117188 321.847656 250.390625 L 319.578125 228.136719 L 338.976562 217.871094 C 341.824219 220.714844 345.785156 222.441406 350.355469 222.441406 C 359.496094 222.441406 367.488281 214.992188 367.488281 205.304688 C 366.910156 199.039062 362.339844 192.738281 355.5 190.46875 " fill-opacity="1" fill-rule="nonzero"/></g></svg>