<svg xmlns="http://www.w3.org/2000/svg" xmlns:xlink="http://www.w3.org/1999/xlink" width="500" zoomAndPan="magnify" viewBox="0 0 375 374.999991" height="500" preserveAspectRatio="xMidYMid meet" version="1.0"><defs><clipPath id="id1"><path d="M 33.84375 38.988281 L 330.84375 38.988281 L 330.84375 335.988281 L 33.84375 335.988281 Z M 33.84375 38.988281 " clip-rule="nonzero"/></clipPath></defs><g clip-path="url(#id1)"><path fill="#cb0037" d="M 224.625 315.5 C 235.824219 303.664062 245.242188 287.195312 252.144531 267.449219 C 264.164062 271.652344 273.164062 276.472656 279.609375 280.71875 C 264.546875 296.425781 245.738281 308.5 224.625 315.5 Z M 84.679688 280.390625 C 88.648438 277.699219 95.253906 273.800781 104.851562 269.933594 C 107.28125 268.957031 109.792969 268.03125 112.355469 267.160156 C 119.269531 287.035156 128.722656 303.609375 139.976562 315.5 C 118.71875 308.449219 99.796875 296.257812 84.679688 280.390625 Z M 139.976562 59.386719 C 128.890625 71.105469 119.542969 87.367188 112.664062 106.859375 C 100.773438 102.683594 91.851562 97.902344 85.449219 93.691406 C 100.433594 78.214844 119.074219 66.316406 139.976562 59.386719 Z M 279.796875 94.363281 C 275.777344 97.039062 269.355469 100.753906 260.171875 104.453125 C 257.570312 105.5 254.890625 106.488281 252.136719 107.410156 C 245.238281 87.675781 235.820312 71.214844 224.625 59.386719 C 245.824219 66.414062 264.703125 78.558594 279.796875 94.363281 Z M 264.699219 180.648438 C 264.179688 158.914062 261.171875 138.539062 256.171875 120.375 C 260.410156 118.957031 264.195312 117.519531 267.484375 116.132812 C 276.90625 112.15625 283.609375 108.167969 287.566406 105.519531 C 287.980469 105.242188 288.359375 104.980469 288.738281 104.722656 C 305.246094 125.910156 315.601562 152.117188 317.019531 180.648438 Z M 190.0625 243.359375 L 190.0625 194.238281 L 251.109375 194.238281 C 250.574219 214.347656 247.652344 233.457031 242.914062 250.488281 C 228.433594 246.695312 210.941406 243.941406 190.0625 243.359375 Z M 190.0625 321.410156 L 190.0625 256.945312 C 209.386719 257.511719 225.511719 260.007812 238.820312 263.433594 C 227.671875 294.714844 210.015625 316.796875 190.0625 321.410156 Z M 176.480469 256.867188 L 176.480469 321.796875 C 155.695312 318.199219 137.210938 295.636719 125.714844 263.238281 C 141.101562 259.382812 158.265625 257.214844 176.480469 256.867188 Z M 113.492188 194.238281 L 176.480469 194.238281 L 176.480469 243.296875 C 154.261719 243.699219 136.023438 246.597656 121.625 250.269531 C 116.929688 233.289062 114.03125 214.261719 113.492188 194.238281 Z M 176.480469 131.074219 L 176.480469 180.648438 L 113.492188 180.648438 C 114.035156 160.316406 117.007812 141.003906 121.839844 123.824219 C 136.722656 127.75 154.796875 130.578125 176.480469 131.074219 Z M 176.480469 53.089844 L 176.480469 117.480469 C 156.375 117.003906 139.683594 114.441406 125.988281 110.894531 C 137.507812 78.90625 155.855469 56.65625 176.480469 53.089844 Z M 190.0625 117.476562 L 190.0625 53.476562 C 209.980469 58.082031 227.609375 80.09375 238.761719 111.292969 C 223.949219 114.953125 207.496094 117.042969 190.0625 117.476562 Z M 190.0625 131.070312 C 211.34375 130.570312 228.894531 127.773438 242.878906 124.25 C 247.636719 141.316406 250.570312 160.480469 251.109375 180.648438 L 190.0625 180.648438 Z M 76.429688 104.003906 C 83.746094 108.980469 94.285156 114.8125 108.597656 119.792969 C 103.496094 138.105469 100.429688 158.679688 99.90625 180.648438 L 47.578125 180.648438 C 49.019531 151.792969 59.59375 125.320312 76.429688 104.003906 Z M 81.582031 276.84375 C 81.621094 276.941406 81.636719 277.042969 81.664062 277.140625 C 81.589844 277.058594 81.523438 276.972656 81.449219 276.890625 Z M 77.460938 268.871094 C 76.847656 269.277344 76.289062 269.660156 75.757812 270.027344 C 59.3125 248.863281 49 222.710938 47.578125 194.238281 L 99.90625 194.238281 C 100.421875 215.839844 103.394531 236.097656 108.339844 254.179688 C 104.304688 255.542969 100.699219 256.917969 97.542969 258.253906 C 88.117188 262.226562 81.417969 266.21875 77.460938 268.871094 Z M 288.574219 270.371094 C 281.222656 265.363281 270.605469 259.496094 256.175781 254.5 C 261.171875 236.339844 264.179688 215.96875 264.699219 194.238281 L 317.019531 194.238281 C 315.59375 222.863281 305.175781 249.144531 288.574219 270.371094 Z M 182.300781 38.960938 C 100.429688 38.960938 33.820312 105.574219 33.820312 187.441406 C 33.820312 269.3125 100.429688 335.925781 182.300781 335.925781 C 264.171875 335.925781 330.785156 269.3125 330.785156 187.441406 C 330.785156 105.574219 264.171875 38.960938 182.300781 38.960938 " fill-opacity="1" fill-rule="nonzero"/></g></svg>