<svg xmlns="http://www.w3.org/2000/svg" xmlns:xlink="http://www.w3.org/1999/xlink" width="500" zoomAndPan="magnify" viewBox="0 0 375 374.999991" height="500" preserveAspectRatio="xMidYMid meet" version="1.0"><defs><clipPath id="id1"><path d="M 268 37.5 L 316 37.5 L 316 86 L 268 86 Z M 268 37.5 " clip-rule="nonzero"/></clipPath><clipPath id="id2"><path d="M 285 147 L 337.359375 147 L 337.359375 200 L 285 200 Z M 285 147 " clip-rule="nonzero"/></clipPath><clipPath id="id3"><path d="M 33 37.5 L 219 37.5 L 219 342 L 33 342 Z M 33 37.5 " clip-rule="nonzero"/></clipPath></defs><path fill="#c4002f" d="M 94.855469 99.730469 C 94.855469 94.503906 90.578125 90.230469 85.351562 90.230469 L 61.601562 90.230469 C 56.375 90.230469 52.101562 94.503906 52.101562 99.730469 L 52.101562 123.480469 C 52.101562 128.707031 56.375 132.984375 61.601562 132.984375 L 85.351562 132.984375 C 90.578125 132.984375 94.855469 128.707031 94.855469 123.480469 Z M 94.855469 99.730469 " fill-opacity="1" fill-rule="nonzero"/><path fill="#c4002f" d="M 147.109375 99.730469 C 147.109375 94.503906 142.832031 90.230469 137.605469 90.230469 L 113.855469 90.230469 C 108.628906 90.230469 104.355469 94.503906 104.355469 99.730469 L 104.355469 123.480469 C 104.355469 128.707031 108.628906 132.984375 113.855469 132.984375 L 137.605469 132.984375 C 142.832031 132.984375 147.109375 128.707031 147.109375 123.480469 Z M 113.855469 123.480469 L 113.855469 99.730469 L 137.605469 99.730469 L 137.605469 123.480469 Z M 113.855469 123.480469 " fill-opacity="1" fill-rule="nonzero"/><path fill="#c4002f" d="M 94.855469 151.984375 C 94.855469 146.757812 90.578125 142.484375 85.351562 142.484375 L 61.601562 142.484375 C 56.375 142.484375 52.101562 146.757812 52.101562 151.984375 L 52.101562 175.738281 C 52.101562 180.960938 56.375 185.238281 61.601562 185.238281 L 85.351562 185.238281 C 90.578125 185.238281 94.855469 180.960938 94.855469 175.738281 Z M 61.601562 175.738281 L 61.601562 151.984375 L 85.351562 151.984375 L 85.351562 175.738281 Z M 61.601562 175.738281 " fill-opacity="1" fill-rule="nonzero"/><path fill="#c4002f" d="M 147.109375 151.984375 C 147.109375 146.757812 142.832031 142.484375 137.605469 142.484375 L 113.855469 142.484375 C 108.628906 142.484375 104.355469 146.757812 104.355469 151.984375 L 104.355469 175.738281 C 104.355469 180.960938 108.628906 185.238281 113.855469 185.238281 L 137.605469 185.238281 C 142.832031 185.238281 147.109375 180.960938 147.109375 175.738281 Z M 147.109375 151.984375 " fill-opacity="1" fill-rule="nonzero"/><g clip-path="url(#id1)"><path fill="#c4002f" d="M 315.035156 70.992188 C 315.984375 68.613281 315.984375 66.238281 315.035156 63.863281 L 306.246094 43.4375 C 305.296875 41.300781 303.394531 39.398438 301.257812 38.449219 C 298.882812 37.5 296.507812 37.5 294.132812 38.449219 L 273.707031 47.476562 C 271.566406 48.425781 269.667969 50.324219 268.71875 52.464844 C 267.769531 54.839844 267.769531 57.214844 268.71875 59.589844 L 277.507812 80.015625 C 278.457031 82.152344 280.355469 84.054688 282.492188 85.003906 C 283.679688 85.480469 284.632812 85.714844 285.820312 85.714844 C 287.007812 85.714844 288.195312 85.480469 289.382812 85.003906 L 309.808594 76.214844 C 312.421875 75.027344 314.085938 73.128906 315.035156 70.992188 Z M 315.035156 70.992188 " fill-opacity="1" fill-rule="nonzero"/></g><path fill="#c4002f" d="M 297.21875 139.394531 C 301.257812 136.070312 301.734375 129.894531 298.171875 126.09375 L 282.730469 108.042969 C 281.070312 106.144531 278.695312 104.957031 276.320312 104.71875 C 273.707031 104.480469 271.332031 105.429688 269.429688 107.09375 L 251.378906 122.53125 C 247.339844 125.855469 246.867188 132.03125 250.429688 135.832031 L 265.867188 153.882812 C 267.53125 155.785156 269.90625 156.972656 272.28125 157.210938 C 272.519531 157.210938 272.753906 157.210938 272.992188 157.210938 C 275.367188 157.210938 277.507812 156.496094 279.167969 154.835938 Z M 272.992188 147.710938 L 257.554688 129.65625 L 275.605469 114.21875 L 291.042969 132.269531 Z M 272.992188 147.710938 " fill-opacity="1" fill-rule="nonzero"/><path fill="#c4002f" d="M 220.976562 98.304688 L 242.828125 107.566406 C 247.578125 109.46875 253.277344 107.332031 255.179688 102.582031 L 264.441406 80.730469 C 266.582031 75.976562 264.203125 70.277344 259.453125 68.378906 L 237.367188 58.875 C 232.613281 56.738281 226.914062 59.113281 225.015625 63.863281 C 225.015625 63.863281 215.75 85.714844 215.75 85.714844 C 215.039062 87.378906 215.039062 89.042969 215.277344 90.703125 C 215.75 94.03125 217.890625 96.878906 220.976562 98.304688 Z M 220.976562 98.304688 " fill-opacity="1" fill-rule="nonzero"/><path fill="#c4002f" d="M 267.054688 179.0625 C 265.15625 177.160156 262.78125 176.210938 260.40625 176.210938 C 258.03125 176.210938 255.417969 177.160156 253.753906 179.0625 L 236.890625 195.925781 C 234.988281 197.824219 234.039062 200.199219 234.039062 202.574219 C 234.039062 205.1875 234.988281 207.5625 236.890625 209.226562 L 253.753906 226.089844 C 255.652344 227.992188 258.03125 228.941406 260.40625 228.941406 C 262.78125 228.941406 265.394531 227.992188 267.054688 226.089844 L 283.917969 209.226562 C 285.820312 207.328125 286.769531 204.953125 286.769531 202.574219 C 286.769531 199.964844 285.820312 197.589844 283.917969 195.925781 Z M 267.054688 179.0625 " fill-opacity="1" fill-rule="nonzero"/><g clip-path="url(#id2)"><path fill="#c4002f" d="M 317.648438 150.085938 C 314.085938 146.519531 307.910156 146.519531 304.347656 150.085938 L 287.71875 166.710938 C 284.15625 170.273438 284.15625 176.449219 287.71875 180.011719 L 304.347656 196.636719 C 306.246094 198.539062 308.382812 199.488281 310.996094 199.488281 C 313.609375 199.488281 315.984375 198.539062 317.648438 196.636719 L 334.273438 180.011719 C 336.171875 178.113281 337.125 175.972656 337.125 173.359375 C 337.125 170.75 336.171875 168.375 334.273438 166.710938 Z M 317.648438 150.085938 " fill-opacity="1" fill-rule="nonzero"/></g><path fill="#c4002f" d="M 267.53125 244.378906 C 266.582031 246.753906 266.582031 249.367188 267.53125 251.742188 L 277.03125 273.59375 C 277.980469 275.96875 279.882812 277.632812 282.257812 278.582031 C 283.445312 279.058594 284.632812 279.292969 285.820312 279.292969 C 287.007812 279.292969 288.433594 279.058594 289.621094 278.582031 L 311.472656 269.082031 C 313.847656 268.132812 315.507812 266.230469 316.460938 263.855469 C 317.410156 261.480469 317.410156 258.867188 316.460938 256.492188 L 306.957031 234.640625 C 306.007812 232.265625 304.109375 230.601562 301.734375 229.652344 C 299.359375 228.703125 296.746094 228.703125 294.371094 229.652344 L 272.519531 239.152344 C 270.378906 240.105469 268.480469 242.003906 267.53125 244.378906 Z M 298.171875 238.441406 L 307.671875 260.292969 L 285.820312 269.792969 L 276.320312 247.941406 Z M 298.171875 238.441406 " fill-opacity="1" fill-rule="nonzero"/><path fill="#c4002f" d="M 94.855469 204.238281 C 94.855469 199.011719 90.578125 194.738281 85.351562 194.738281 L 61.601562 194.738281 C 56.375 194.738281 52.101562 199.011719 52.101562 204.238281 L 52.101562 227.992188 C 52.101562 233.214844 56.375 237.492188 61.601562 237.492188 L 85.351562 237.492188 C 90.578125 237.492188 94.855469 233.214844 94.855469 227.992188 Z M 94.855469 204.238281 " fill-opacity="1" fill-rule="nonzero"/><path fill="#c4002f" d="M 147.109375 204.238281 C 147.109375 199.011719 142.832031 194.738281 137.605469 194.738281 L 113.855469 194.738281 C 108.628906 194.738281 104.355469 199.011719 104.355469 204.238281 L 104.355469 227.992188 C 104.355469 233.214844 108.628906 237.492188 113.855469 237.492188 L 137.605469 237.492188 C 142.832031 237.492188 147.109375 233.214844 147.109375 227.992188 Z M 113.855469 227.992188 L 113.855469 204.238281 L 137.605469 204.238281 L 137.605469 227.992188 Z M 113.855469 227.992188 " fill-opacity="1" fill-rule="nonzero"/><path fill="#c4002f" d="M 85.351562 246.992188 L 61.601562 246.992188 C 56.375 246.992188 52.101562 251.265625 52.101562 256.492188 L 52.101562 280.246094 C 52.101562 285.46875 56.375 289.746094 61.601562 289.746094 L 85.351562 289.746094 C 90.578125 289.746094 94.855469 285.46875 94.855469 280.246094 L 94.855469 256.492188 C 94.855469 251.265625 90.578125 246.992188 85.351562 246.992188 Z M 61.601562 280.246094 L 61.601562 256.492188 L 85.351562 256.492188 L 85.351562 280.246094 Z M 61.601562 280.246094 " fill-opacity="1" fill-rule="nonzero"/><path fill="#c4002f" d="M 137.605469 246.992188 L 113.855469 246.992188 C 108.628906 246.992188 104.355469 251.265625 104.355469 256.492188 L 104.355469 280.246094 C 104.355469 285.46875 108.628906 289.746094 113.855469 289.746094 L 137.605469 289.746094 C 142.832031 289.746094 147.109375 285.46875 147.109375 280.246094 L 147.109375 256.492188 C 147.109375 251.265625 142.832031 246.992188 137.605469 246.992188 Z M 137.605469 246.992188 " fill-opacity="1" fill-rule="nonzero"/><path fill="#c4002f" d="M 156.609375 280.246094 C 156.609375 285.46875 160.882812 289.746094 166.109375 289.746094 L 189.863281 289.746094 C 195.085938 289.746094 199.125 285.707031 199.363281 280.71875 L 193.1875 278.105469 C 192 277.632812 191.050781 276.917969 190.097656 276.445312 L 190.097656 280.484375 L 166.109375 280.484375 L 166.109375 256.492188 L 181.785156 256.492188 C 182.023438 255.304688 182.261719 254.117188 182.734375 253.167969 L 185.347656 246.992188 L 166.109375 246.992188 C 160.882812 246.992188 156.609375 251.265625 156.609375 256.492188 Z M 156.609375 280.246094 " fill-opacity="1" fill-rule="nonzero"/><path fill="#c4002f" d="M 156.609375 227.992188 C 156.609375 233.214844 160.882812 237.492188 166.109375 237.492188 L 189.386719 237.492188 L 192 231.316406 C 193.425781 227.753906 196.035156 224.664062 199.125 222.765625 L 199.125 204.238281 C 199.125 199.011719 194.847656 194.738281 189.625 194.738281 L 166.109375 194.738281 C 160.882812 194.738281 156.609375 199.011719 156.609375 204.238281 Z M 156.609375 227.992188 " fill-opacity="1" fill-rule="nonzero"/><path fill="#c4002f" d="M 192.710938 136.78125 L 183.449219 158.636719 C 181.3125 163.386719 183.6875 169.085938 188.4375 170.984375 C 188.4375 170.984375 210.289062 180.25 210.289062 180.25 C 215.039062 182.148438 220.738281 180.011719 222.640625 175.261719 L 231.902344 153.410156 C 234.039062 148.660156 231.664062 142.957031 226.914062 141.058594 C 226.914062 141.058594 205.0625 131.796875 205.0625 131.796875 C 200.550781 129.65625 194.613281 132.269531 192.710938 136.78125 Z M 214.089844 171.699219 L 192.238281 162.433594 L 201.5 140.582031 L 223.351562 149.847656 Z M 214.089844 171.699219 " fill-opacity="1" fill-rule="nonzero"/><path fill="#c4002f" d="M 231.191406 273.355469 L 240.453125 251.503906 C 242.589844 246.753906 240.214844 241.054688 235.464844 239.152344 L 213.613281 229.890625 C 211.238281 228.941406 208.625 228.941406 206.25 229.890625 C 203.875 230.839844 201.976562 232.742188 201.023438 235.117188 C 201.023438 235.117188 191.285156 258.394531 191.285156 259.34375 C 190.8125 263.144531 192.472656 266.945312 195.5625 268.84375 C 196.035156 269.082031 218.839844 278.820312 218.839844 278.820312 C 223.351562 280.484375 229.050781 278.105469 231.191406 273.355469 Z M 231.191406 273.355469 " fill-opacity="1" fill-rule="nonzero"/><g clip-path="url(#id3)"><path fill="#c4002f" d="M 61.601562 342 L 189.863281 342 C 205.539062 342 218.363281 329.175781 218.363281 313.496094 L 218.363281 288.320312 C 217.175781 288.082031 215.988281 287.609375 215.039062 287.371094 L 208.863281 284.757812 L 208.863281 294.734375 C 208.863281 305.183594 200.3125 313.734375 189.863281 313.734375 L 61.601562 313.734375 C 51.148438 313.734375 42.597656 305.183594 42.597656 294.734375 L 42.597656 66.476562 C 42.597656 56.027344 51.148438 47.476562 61.601562 47.476562 L 90.339844 47.476562 L 95.089844 53.175781 C 102.453125 61.488281 112.90625 66.476562 123.355469 66.476562 C 133.808594 66.476562 144.257812 61.488281 151.621094 53.175781 L 156.371094 47.476562 L 189.863281 47.476562 C 200.3125 47.476562 208.863281 56.027344 208.863281 66.476562 L 208.863281 77.878906 L 216.226562 60.300781 C 216.464844 59.589844 216.699219 59.113281 217.175781 58.640625 C 213.613281 46.527344 202.6875 37.976562 189.863281 37.976562 L 61.601562 37.976562 C 45.925781 37.976562 33.097656 50.800781 33.097656 66.476562 L 33.097656 313.496094 C 33.097656 329.175781 45.925781 342 61.601562 342 Z M 61.601562 323 L 189.863281 323 C 196.988281 323 203.636719 320.386719 208.625 315.871094 C 207.4375 325.375 199.363281 332.5 189.863281 332.5 L 61.601562 332.5 C 51.863281 332.5 44.023438 325.136719 42.835938 315.871094 C 47.824219 320.386719 54.476562 323 61.601562 323 Z M 143.78125 47.476562 C 138.320312 53.652344 130.957031 56.976562 123.355469 56.976562 C 115.753906 56.976562 108.628906 53.652344 102.929688 47.476562 Z M 143.78125 47.476562 " fill-opacity="1" fill-rule="nonzero"/></g><path fill="#c4002f" d="M 156.609375 175.738281 C 156.609375 180.960938 160.882812 185.238281 166.109375 185.238281 L 189.863281 185.238281 C 191.523438 185.238281 193.1875 184.761719 194.613281 184.050781 L 184.875 180.011719 C 182.5 179.0625 180.359375 177.636719 178.699219 175.738281 L 166.109375 175.738281 L 166.109375 151.984375 L 176.085938 151.984375 L 180.125 142.484375 L 166.109375 142.484375 C 160.882812 142.484375 156.609375 146.757812 156.609375 151.984375 Z M 156.609375 175.738281 " fill-opacity="1" fill-rule="nonzero"/><path fill="#c4002f" d="M 189.863281 90.230469 L 166.109375 90.230469 C 160.882812 90.230469 156.609375 94.503906 156.609375 99.730469 L 156.609375 123.480469 C 156.609375 128.707031 160.882812 132.984375 166.109375 132.984375 L 183.921875 132.984375 C 186.535156 126.570312 192.472656 122.292969 199.363281 121.582031 L 199.363281 99.730469 C 199.363281 94.503906 195.085938 90.230469 189.863281 90.230469 Z M 189.863281 90.230469 " fill-opacity="1" fill-rule="nonzero"/><path fill="#c4002f" d="M 208.863281 100.207031 L 208.863281 123.007812 L 218.363281 127.042969 L 218.363281 107.566406 L 217.175781 106.855469 C 213.851562 105.429688 211 103.054688 208.863281 100.207031 Z M 208.863281 100.207031 " fill-opacity="1" fill-rule="nonzero"/><path fill="#c4002f" d="M 208.863281 219.675781 C 209.101562 219.675781 209.339844 219.675781 209.574219 219.675781 C 212.1875 219.675781 214.5625 220.152344 216.9375 221.101562 L 218.363281 221.578125 L 218.363281 189.988281 C 216.9375 190.226562 215.511719 190.460938 214.089844 190.460938 C 212.1875 190.460938 210.527344 190.226562 208.863281 189.75 Z M 208.863281 219.675781 " fill-opacity="1" fill-rule="nonzero"/></svg>