<svg xmlns="http://www.w3.org/2000/svg" xmlns:xlink="http://www.w3.org/1999/xlink" width="500" zoomAndPan="magnify" viewBox="0 0 375 374.999991" height="500" preserveAspectRatio="xMidYMid meet" version="1.0"><defs><clipPath id="id1"><path d="M 18.3125 20.1875 L 356.5625 20.1875 L 356.5625 358.4375 L 18.3125 358.4375 Z M 18.3125 20.1875 " clip-rule="nonzero"/></clipPath></defs><path stroke-linecap="butt" transform="matrix(3.75, 0, 0, 3.75, 127.499996, 187.499988)" fill="none" stroke-linejoin="miter" d="M 0.00000103267 0.00000328333 L 32.000003 0.00000328333 " stroke="#ffffff" stroke-width="1" stroke-opacity="1" stroke-miterlimit="4"/><g clip-path="url(#id1)"><path fill="#dd0035" d="M 317.097656 297.988281 L 317.097656 265.878906 L 345.285156 249.761719 L 345.285156 281.867188 Z M 277.636719 249.761719 L 305.824219 265.878906 L 305.824219 297.988281 L 277.636719 281.867188 Z M 229.695312 280.261719 L 193.074219 259.316406 L 193.074219 237.691406 L 229.695312 216.75 C 231.457031 215.757812 232.535156 213.886719 232.535156 211.863281 L 232.535156 166.761719 C 232.535156 164.734375 231.457031 162.863281 229.695312 161.871094 L 193.074219 140.929688 L 193.074219 119.304688 L 227.074219 99.859375 L 266.363281 119.503906 L 266.363281 138.574219 C 266.363281 140.601562 267.441406 142.472656 269.203125 143.460938 L 305.824219 164.40625 L 305.824219 214.21875 L 269.203125 235.160156 C 267.441406 236.152344 266.363281 238.023438 266.363281 240.050781 L 266.363281 282.023438 L 232.535156 303.164062 L 232.535156 285.148438 C 232.535156 283.125 231.457031 281.25 229.695312 280.261719 Z M 193.074219 343.085938 L 193.074219 310.980469 L 221.261719 294.859375 L 221.261719 326.96875 Z M 153.613281 294.859375 L 181.800781 310.980469 L 181.800781 343.085938 L 153.613281 326.96875 Z M 108.511719 282.023438 L 108.511719 240.050781 C 108.511719 238.023438 107.433594 236.152344 105.671875 235.160156 L 69.050781 214.21875 L 69.050781 164.40625 L 105.671875 143.460938 C 107.433594 142.472656 108.511719 140.601562 108.511719 138.574219 L 108.511719 119.503906 L 147.796875 99.859375 L 181.800781 119.304688 L 181.800781 140.929688 L 145.175781 161.871094 C 143.414062 162.863281 142.335938 164.734375 142.335938 166.761719 L 142.335938 211.863281 C 142.335938 213.886719 143.414062 215.757812 145.175781 216.75 L 181.800781 237.691406 L 181.800781 259.316406 L 145.175781 280.261719 C 143.414062 281.25 142.335938 283.125 142.335938 285.148438 L 142.335938 303.164062 Z M 69.050781 297.988281 L 69.050781 265.878906 L 97.238281 249.761719 L 97.238281 281.867188 Z M 29.585938 249.761719 L 57.773438 265.878906 L 57.773438 297.988281 L 29.585938 281.867188 Z M 63.410156 256.101562 L 35.3125 240.050781 L 63.410156 223.996094 L 91.511719 240.050781 Z M 29.585938 103.183594 L 57.773438 119.304688 L 57.773438 151.414062 L 29.585938 135.292969 Z M 63.410156 77.421875 L 91.511719 93.472656 L 63.410156 109.527344 L 35.3125 93.472656 Z M 69.050781 119.304688 L 97.238281 103.183594 L 97.238281 135.292969 L 69.050781 151.414062 Z M 187.4375 32.320312 L 215.535156 48.375 L 187.4375 64.425781 L 159.335938 48.375 Z M 193.074219 74.207031 L 221.261719 58.085938 L 221.261719 90.191406 L 193.074219 106.3125 Z M 153.613281 58.085938 L 181.800781 74.207031 L 181.800781 106.3125 L 153.613281 90.191406 Z M 187.4375 182.816406 L 159.335938 166.761719 L 187.4375 150.707031 L 215.535156 166.761719 Z M 193.074219 192.59375 L 221.261719 176.472656 L 221.261719 208.582031 L 193.074219 224.699219 Z M 153.613281 176.472656 L 181.800781 192.59375 L 181.800781 224.699219 L 153.613281 208.582031 Z M 187.4375 301.203125 L 159.335938 285.148438 L 187.4375 269.09375 L 215.535156 285.148438 Z M 311.460938 77.421875 L 339.5625 93.472656 L 311.460938 109.527344 L 283.363281 93.472656 Z M 277.636719 103.183594 L 305.824219 119.304688 L 305.824219 151.414062 L 277.636719 135.292969 Z M 311.460938 256.101562 L 283.363281 240.050781 L 311.460938 223.996094 L 339.5625 240.050781 Z M 317.097656 151.414062 L 317.097656 119.304688 L 345.285156 103.183594 L 345.285156 135.292969 Z M 353.722656 143.460938 C 355.484375 142.472656 356.5625 140.601562 356.5625 138.574219 L 356.5625 93.472656 C 356.5625 91.449219 355.484375 89.578125 353.722656 88.585938 L 314.257812 66.035156 C 312.539062 65.042969 310.382812 65.042969 308.664062 66.035156 L 269.203125 88.585938 C 267.441406 89.578125 266.363281 91.449219 266.363281 93.472656 L 266.363281 106.90625 L 232.535156 89.996094 L 232.535156 48.375 C 232.535156 46.347656 231.457031 44.476562 229.695312 43.484375 L 190.234375 20.933594 C 188.515625 19.945312 186.359375 19.945312 184.640625 20.933594 L 145.175781 43.484375 C 143.414062 44.476562 142.335938 46.347656 142.335938 48.375 L 142.335938 89.996094 L 108.511719 106.90625 L 108.511719 93.472656 C 108.511719 91.449219 107.433594 89.578125 105.671875 88.585938 L 66.207031 66.035156 C 64.492188 65.042969 62.355469 65.042969 60.613281 66.035156 L 21.152344 88.585938 C 19.390625 89.578125 18.3125 91.449219 18.3125 93.472656 L 18.3125 138.574219 C 18.3125 140.601562 19.390625 142.472656 21.152344 143.460938 L 57.773438 164.40625 L 57.773438 214.21875 L 21.152344 235.160156 C 19.390625 236.152344 18.3125 238.023438 18.3125 240.050781 L 18.3125 285.148438 C 18.3125 287.175781 19.390625 289.046875 21.152344 290.039062 L 60.613281 312.585938 C 61.472656 313.09375 62.441406 313.335938 63.410156 313.335938 C 64.378906 313.335938 65.347656 313.09375 66.207031 312.585938 L 102.742188 291.710938 L 142.335938 316.464844 L 142.335938 330.25 C 142.335938 332.273438 143.414062 334.148438 145.175781 335.136719 L 184.640625 357.6875 C 185.5 358.195312 186.46875 358.4375 187.4375 358.4375 C 188.40625 358.4375 189.375 358.195312 190.234375 357.6875 L 229.695312 335.136719 C 231.457031 334.148438 232.535156 332.273438 232.535156 330.25 L 232.535156 316.464844 L 272.132812 291.710938 L 308.664062 312.585938 C 309.523438 313.09375 310.492188 313.335938 311.460938 313.335938 C 312.429688 313.335938 313.398438 313.09375 314.257812 312.585938 L 353.722656 290.039062 C 355.484375 289.046875 356.5625 287.175781 356.5625 285.148438 L 356.5625 240.050781 C 356.5625 238.023438 355.484375 236.152344 353.722656 235.160156 L 317.097656 214.21875 L 317.097656 164.40625 L 353.722656 143.460938 " fill-opacity="1" fill-rule="nonzero"/></g></svg>