<svg xmlns="http://www.w3.org/2000/svg" xmlns:xlink="http://www.w3.org/1999/xlink" width="500" zoomAndPan="magnify" viewBox="0 0 375 374.999991" height="500" preserveAspectRatio="xMidYMid meet" version="1.0"><defs><clipPath id="id1"><path d="M 40 51.332031 L 319 51.332031 L 319 213 L 40 213 Z M 40 51.332031 " clip-rule="nonzero"/></clipPath><clipPath id="id2"><path d="M 83 308 L 105 308 L 105 330.332031 L 83 330.332031 Z M 83 308 " clip-rule="nonzero"/></clipPath><clipPath id="id3"><path d="M 254 308 L 277 308 L 277 330.332031 L 254 330.332031 Z M 254 308 " clip-rule="nonzero"/></clipPath><clipPath id="id4"><path d="M 308 233 L 329.625 233 L 329.625 256 L 308 256 Z M 308 233 " clip-rule="nonzero"/></clipPath><clipPath id="id5"><path d="M 29.625 233 L 52 233 L 52 256 L 29.625 256 Z M 29.625 233 " clip-rule="nonzero"/></clipPath></defs><g clip-path="url(#id1)"><path fill="#c60035" d="M 281.410156 137.1875 L 270.359375 137.1875 C 270.5625 135.445312 270.695312 133.632812 270.695312 131.824219 C 270.695312 105.136719 249.132812 83.546875 222.480469 83.546875 C 217.992188 83.546875 213.640625 84.148438 209.488281 85.355469 C 198.640625 65.105469 177.347656 51.359375 152.839844 51.359375 C 117.347656 51.359375 88.550781 80.191406 88.550781 115.730469 C 88.550781 123.242188 89.824219 130.484375 92.234375 137.1875 L 77.839844 137.1875 C 57.144531 137.1875 40.339844 154.019531 40.339844 174.738281 C 40.339844 195.457031 57.144531 212.289062 77.839844 212.289062 L 281.410156 212.289062 C 302.101562 212.289062 318.910156 195.457031 318.910156 174.738281 C 318.910156 154.019531 302.101562 137.1875 281.410156 137.1875 Z M 281.410156 137.1875 " fill-opacity="1" fill-rule="nonzero"/></g><path fill="#c60035" d="M 93.910156 319.578125 C 90.964844 319.578125 88.550781 317.164062 88.550781 314.210938 L 88.550781 276.660156 C 88.550781 273.710938 90.964844 271.296875 93.910156 271.296875 L 131.410156 271.296875 L 131.410156 217.652344 C 131.410156 214.703125 133.820312 212.289062 136.765625 212.289062 C 139.710938 212.289062 142.125 214.703125 142.125 217.652344 L 142.125 276.660156 C 142.125 279.613281 139.710938 282.027344 136.765625 282.027344 L 99.265625 282.027344 L 99.265625 314.210938 C 99.265625 317.164062 96.855469 319.578125 93.910156 319.578125 Z M 93.910156 319.578125 " fill-opacity="1" fill-rule="nonzero"/><path fill="#c60035" d="M 265.335938 319.578125 C 262.390625 319.578125 259.980469 317.164062 259.980469 314.210938 L 259.980469 282.027344 L 222.480469 282.027344 C 219.535156 282.027344 217.125 279.613281 217.125 276.660156 L 217.125 217.652344 C 217.125 214.703125 219.535156 212.289062 222.480469 212.289062 C 225.425781 212.289062 227.835938 214.703125 227.835938 217.652344 L 227.835938 271.296875 L 265.335938 271.296875 C 268.285156 271.296875 270.695312 273.710938 270.695312 276.660156 L 270.695312 314.210938 C 270.695312 317.164062 268.285156 319.578125 265.335938 319.578125 Z M 265.335938 319.578125 " fill-opacity="1" fill-rule="nonzero"/><path fill="#ffffff" d="M 147.480469 212.289062 C 147.480469 212.992188 147.410156 213.691406 147.273438 214.382812 C 147.136719 215.074219 146.933594 215.746094 146.664062 216.394531 C 146.394531 217.046875 146.066406 217.664062 145.675781 218.25 C 145.285156 218.835938 144.839844 219.378906 144.34375 219.875 C 143.84375 220.375 143.304688 220.820312 142.71875 221.210938 C 142.132812 221.601562 141.515625 221.933594 140.867188 222.203125 C 140.214844 222.472656 139.546875 222.675781 138.855469 222.8125 C 138.167969 222.949219 137.46875 223.019531 136.765625 223.019531 C 136.0625 223.019531 135.367188 222.949219 134.675781 222.8125 C 133.984375 222.675781 133.316406 222.472656 132.667969 222.203125 C 132.015625 221.933594 131.398438 221.601562 130.8125 221.210938 C 130.230469 220.820312 129.6875 220.375 129.191406 219.875 C 128.691406 219.378906 128.25 218.835938 127.859375 218.25 C 127.46875 217.664062 127.136719 217.046875 126.867188 216.394531 C 126.597656 215.746094 126.394531 215.074219 126.257812 214.382812 C 126.121094 213.691406 126.050781 212.992188 126.050781 212.289062 C 126.050781 211.585938 126.121094 210.886719 126.257812 210.195312 C 126.394531 209.503906 126.597656 208.835938 126.867188 208.183594 C 127.136719 207.53125 127.46875 206.914062 127.859375 206.328125 C 128.25 205.742188 128.691406 205.203125 129.191406 204.703125 C 129.6875 204.203125 130.230469 203.761719 130.8125 203.367188 C 131.398438 202.976562 132.015625 202.648438 132.667969 202.378906 C 133.316406 202.109375 133.984375 201.90625 134.675781 201.765625 C 135.367188 201.628906 136.0625 201.5625 136.765625 201.5625 C 137.46875 201.5625 138.167969 201.628906 138.855469 201.765625 C 139.546875 201.90625 140.214844 202.109375 140.867188 202.378906 C 141.515625 202.648438 142.132812 202.976562 142.71875 203.367188 C 143.304688 203.761719 143.84375 204.203125 144.34375 204.703125 C 144.839844 205.203125 145.285156 205.742188 145.675781 206.328125 C 146.066406 206.914062 146.394531 207.53125 146.664062 208.183594 C 146.933594 208.835938 147.136719 209.503906 147.273438 210.195312 C 147.410156 210.886719 147.480469 211.585938 147.480469 212.289062 Z M 147.480469 212.289062 " fill-opacity="1" fill-rule="nonzero"/><path fill="#c60035" d="M 179.625 276.660156 C 176.675781 276.660156 174.265625 274.246094 174.265625 271.296875 L 174.265625 185.46875 C 174.265625 182.515625 176.675781 180.101562 179.625 180.101562 C 182.570312 180.101562 184.980469 182.515625 184.980469 185.46875 L 184.980469 271.296875 C 184.980469 274.246094 182.570312 276.660156 179.625 276.660156 Z M 179.625 276.660156 " fill-opacity="1" fill-rule="nonzero"/><path fill="#ffffff" d="M 190.335938 180.101562 C 190.335938 180.808594 190.269531 181.503906 190.132812 182.195312 C 189.996094 182.886719 189.792969 183.558594 189.523438 184.210938 C 189.253906 184.859375 188.921875 185.476562 188.53125 186.0625 C 188.140625 186.648438 187.695312 187.191406 187.199219 187.691406 C 186.703125 188.1875 186.160156 188.632812 185.574219 189.023438 C 184.992188 189.414062 184.375 189.746094 183.722656 190.015625 C 183.074219 190.285156 182.402344 190.488281 181.714844 190.625 C 181.023438 190.761719 180.328125 190.832031 179.625 190.832031 C 178.921875 190.832031 178.222656 190.761719 177.535156 190.625 C 176.84375 190.488281 176.171875 190.285156 175.523438 190.015625 C 174.875 189.746094 174.257812 189.414062 173.671875 189.023438 C 173.085938 188.632812 172.542969 188.1875 172.046875 187.691406 C 171.550781 187.191406 171.105469 186.648438 170.714844 186.0625 C 170.324219 185.476562 169.992188 184.859375 169.726562 184.210938 C 169.457031 183.558594 169.253906 182.886719 169.113281 182.195312 C 168.976562 181.503906 168.910156 180.808594 168.910156 180.101562 C 168.910156 179.398438 168.976562 178.703125 169.113281 178.011719 C 169.253906 177.320312 169.457031 176.648438 169.726562 175.996094 C 169.992188 175.347656 170.324219 174.726562 170.714844 174.144531 C 171.105469 173.558594 171.550781 173.015625 172.046875 172.515625 C 172.542969 172.019531 173.085938 171.574219 173.671875 171.183594 C 174.257812 170.792969 174.875 170.460938 175.523438 170.191406 C 176.171875 169.921875 176.84375 169.71875 177.535156 169.582031 C 178.222656 169.441406 178.921875 169.375 179.625 169.375 C 180.328125 169.375 181.023438 169.441406 181.714844 169.582031 C 182.402344 169.71875 183.074219 169.921875 183.722656 170.191406 C 184.375 170.460938 184.992188 170.792969 185.574219 171.183594 C 186.160156 171.574219 186.703125 172.019531 187.199219 172.515625 C 187.695312 173.015625 188.140625 173.558594 188.53125 174.144531 C 188.921875 174.726562 189.253906 175.347656 189.523438 175.996094 C 189.792969 176.648438 189.996094 177.320312 190.132812 178.011719 C 190.269531 178.703125 190.335938 179.398438 190.335938 180.101562 Z M 190.335938 180.101562 " fill-opacity="1" fill-rule="nonzero"/><path fill="#c60035" d="M 313.550781 249.839844 L 265.335938 249.839844 C 262.390625 249.839844 259.980469 247.425781 259.980469 244.476562 L 259.980469 185.46875 C 259.980469 182.515625 262.390625 180.101562 265.335938 180.101562 C 268.285156 180.101562 270.695312 182.515625 270.695312 185.46875 L 270.695312 239.109375 L 313.550781 239.109375 C 316.5 239.109375 318.910156 241.523438 318.910156 244.476562 C 318.910156 247.425781 316.5 249.839844 313.550781 249.839844 Z M 313.550781 249.839844 " fill-opacity="1" fill-rule="nonzero"/><path fill="#ffffff" d="M 276.050781 180.101562 C 276.050781 180.808594 275.984375 181.503906 275.847656 182.195312 C 275.710938 182.886719 275.503906 183.558594 275.238281 184.210938 C 274.96875 184.859375 274.636719 185.476562 274.246094 186.0625 C 273.855469 186.648438 273.410156 187.191406 272.914062 187.691406 C 272.417969 188.1875 271.875 188.632812 271.289062 189.023438 C 270.707031 189.414062 270.089844 189.746094 269.4375 190.015625 C 268.789062 190.285156 268.117188 190.488281 267.429688 190.625 C 266.738281 190.761719 266.042969 190.832031 265.335938 190.832031 C 264.632812 190.832031 263.9375 190.761719 263.246094 190.625 C 262.558594 190.488281 261.886719 190.285156 261.238281 190.015625 C 260.585938 189.746094 259.96875 189.414062 259.386719 189.023438 C 258.800781 188.632812 258.257812 188.1875 257.761719 187.691406 C 257.265625 187.191406 256.820312 186.648438 256.429688 186.0625 C 256.039062 185.476562 255.707031 184.859375 255.4375 184.210938 C 255.171875 183.558594 254.964844 182.886719 254.828125 182.195312 C 254.691406 181.503906 254.625 180.808594 254.625 180.101562 C 254.625 179.398438 254.691406 178.703125 254.828125 178.011719 C 254.964844 177.320312 255.171875 176.648438 255.4375 175.996094 C 255.707031 175.347656 256.039062 174.726562 256.429688 174.144531 C 256.820312 173.558594 257.265625 173.015625 257.761719 172.515625 C 258.257812 172.019531 258.800781 171.574219 259.386719 171.183594 C 259.96875 170.792969 260.585938 170.460938 261.238281 170.191406 C 261.886719 169.921875 262.558594 169.71875 263.246094 169.582031 C 263.9375 169.441406 264.632812 169.375 265.335938 169.375 C 266.042969 169.375 266.738281 169.441406 267.429688 169.582031 C 268.117188 169.71875 268.789062 169.921875 269.4375 170.191406 C 270.089844 170.460938 270.707031 170.792969 271.289062 171.183594 C 271.875 171.574219 272.417969 172.019531 272.914062 172.515625 C 273.410156 173.015625 273.855469 173.558594 274.246094 174.144531 C 274.636719 174.726562 274.96875 175.347656 275.238281 175.996094 C 275.503906 176.648438 275.710938 177.320312 275.847656 178.011719 C 275.984375 178.703125 276.050781 179.398438 276.050781 180.101562 Z M 276.050781 180.101562 " fill-opacity="1" fill-rule="nonzero"/><path fill="#c60035" d="M 93.910156 249.839844 L 45.695312 249.839844 C 42.75 249.839844 40.339844 247.425781 40.339844 244.476562 C 40.339844 241.523438 42.75 239.109375 45.695312 239.109375 L 88.550781 239.109375 L 88.550781 185.46875 C 88.550781 182.515625 90.964844 180.101562 93.910156 180.101562 C 96.855469 180.101562 99.265625 182.515625 99.265625 185.46875 L 99.265625 244.476562 C 99.265625 247.425781 96.855469 249.839844 93.910156 249.839844 Z M 93.910156 249.839844 " fill-opacity="1" fill-rule="nonzero"/><path fill="#ffffff" d="M 104.625 180.101562 C 104.625 180.808594 104.554688 181.503906 104.417969 182.195312 C 104.28125 182.886719 104.078125 183.558594 103.808594 184.210938 C 103.539062 184.859375 103.207031 185.476562 102.816406 186.0625 C 102.425781 186.648438 101.984375 187.191406 101.484375 187.691406 C 100.988281 188.1875 100.445312 188.632812 99.863281 189.023438 C 99.277344 189.414062 98.660156 189.746094 98.007812 190.015625 C 97.359375 190.285156 96.691406 190.488281 96 190.625 C 95.308594 190.761719 94.613281 190.832031 93.910156 190.832031 C 93.207031 190.832031 92.507812 190.761719 91.820312 190.625 C 91.128906 190.488281 90.460938 190.285156 89.808594 190.015625 C 89.160156 189.746094 88.542969 189.414062 87.957031 189.023438 C 87.371094 188.632812 86.832031 188.1875 86.332031 187.691406 C 85.835938 187.191406 85.390625 186.648438 85 186.0625 C 84.609375 185.476562 84.28125 184.859375 84.011719 184.210938 C 83.742188 183.558594 83.539062 182.886719 83.402344 182.195312 C 83.261719 181.503906 83.195312 180.808594 83.195312 180.101562 C 83.195312 179.398438 83.261719 178.703125 83.402344 178.011719 C 83.539062 177.320312 83.742188 176.648438 84.011719 175.996094 C 84.28125 175.347656 84.609375 174.726562 85 174.144531 C 85.390625 173.558594 85.835938 173.015625 86.332031 172.515625 C 86.832031 172.019531 87.371094 171.574219 87.957031 171.183594 C 88.542969 170.792969 89.160156 170.460938 89.808594 170.191406 C 90.460938 169.921875 91.128906 169.71875 91.820312 169.582031 C 92.507812 169.441406 93.207031 169.375 93.910156 169.375 C 94.613281 169.375 95.308594 169.441406 96 169.582031 C 96.691406 169.71875 97.359375 169.921875 98.007812 170.191406 C 98.660156 170.460938 99.277344 170.792969 99.863281 171.183594 C 100.445312 171.574219 100.988281 172.019531 101.484375 172.515625 C 101.984375 173.015625 102.425781 173.558594 102.816406 174.144531 C 103.207031 174.726562 103.539062 175.347656 103.808594 175.996094 C 104.078125 176.648438 104.28125 177.320312 104.417969 178.011719 C 104.554688 178.703125 104.625 179.398438 104.625 180.101562 Z M 104.625 180.101562 " fill-opacity="1" fill-rule="nonzero"/><path fill="#ffffff" d="M 233.195312 212.289062 C 233.195312 212.992188 233.125 213.691406 232.988281 214.382812 C 232.851562 215.074219 232.648438 215.746094 232.378906 216.394531 C 232.109375 217.046875 231.78125 217.664062 231.390625 218.25 C 231 218.835938 230.554688 219.378906 230.058594 219.875 C 229.558594 220.375 229.019531 220.820312 228.433594 221.210938 C 227.847656 221.601562 227.230469 221.933594 226.582031 222.203125 C 225.929688 222.472656 225.261719 222.675781 224.570312 222.8125 C 223.882812 222.949219 223.183594 223.019531 222.480469 223.019531 C 221.777344 223.019531 221.082031 222.949219 220.390625 222.8125 C 219.699219 222.675781 219.03125 222.472656 218.378906 222.203125 C 217.730469 221.933594 217.113281 221.601562 216.527344 221.210938 C 215.941406 220.820312 215.402344 220.375 214.90625 219.875 C 214.40625 219.378906 213.964844 218.835938 213.570312 218.25 C 213.179688 217.664062 212.851562 217.046875 212.582031 216.394531 C 212.3125 215.746094 212.109375 215.074219 211.972656 214.382812 C 211.835938 213.691406 211.765625 212.992188 211.765625 212.289062 C 211.765625 211.585938 211.835938 210.886719 211.972656 210.195312 C 212.109375 209.503906 212.3125 208.835938 212.582031 208.183594 C 212.851562 207.53125 213.179688 206.914062 213.570312 206.328125 C 213.964844 205.742188 214.40625 205.203125 214.90625 204.703125 C 215.402344 204.203125 215.941406 203.761719 216.527344 203.367188 C 217.113281 202.976562 217.730469 202.648438 218.378906 202.378906 C 219.03125 202.109375 219.699219 201.90625 220.390625 201.765625 C 221.082031 201.628906 221.777344 201.5625 222.480469 201.5625 C 223.183594 201.5625 223.882812 201.628906 224.570312 201.765625 C 225.261719 201.90625 225.929688 202.109375 226.582031 202.378906 C 227.230469 202.648438 227.847656 202.976562 228.433594 203.367188 C 229.019531 203.761719 229.558594 204.203125 230.058594 204.703125 C 230.554688 205.203125 231 205.742188 231.390625 206.328125 C 231.78125 206.914062 232.109375 207.53125 232.378906 208.183594 C 232.648438 208.835938 232.851562 209.503906 232.988281 210.195312 C 233.125 210.886719 233.195312 211.585938 233.195312 212.289062 Z M 233.195312 212.289062 " fill-opacity="1" fill-rule="nonzero"/><g clip-path="url(#id2)"><path fill="#ffffff" d="M 104.625 319.578125 C 104.625 320.28125 104.554688 320.980469 104.417969 321.667969 C 104.28125 322.359375 104.078125 323.03125 103.808594 323.683594 C 103.539062 324.332031 103.207031 324.953125 102.816406 325.535156 C 102.425781 326.121094 101.984375 326.664062 101.484375 327.164062 C 100.988281 327.660156 100.445312 328.105469 99.863281 328.496094 C 99.277344 328.886719 98.660156 329.21875 98.007812 329.488281 C 97.359375 329.757812 96.691406 329.960938 96 330.097656 C 95.308594 330.238281 94.613281 330.304688 93.910156 330.304688 C 93.207031 330.304688 92.507812 330.238281 91.820312 330.097656 C 91.128906 329.960938 90.460938 329.757812 89.808594 329.488281 C 89.160156 329.21875 88.542969 328.886719 87.957031 328.496094 C 87.371094 328.105469 86.832031 327.660156 86.332031 327.164062 C 85.835938 326.664062 85.390625 326.121094 85 325.535156 C 84.609375 324.953125 84.28125 324.332031 84.011719 323.683594 C 83.742188 323.03125 83.539062 322.359375 83.402344 321.667969 C 83.261719 320.980469 83.195312 320.28125 83.195312 319.578125 C 83.195312 318.871094 83.261719 318.175781 83.402344 317.484375 C 83.539062 316.792969 83.742188 316.121094 84.011719 315.472656 C 84.28125 314.820312 84.609375 314.203125 85 313.617188 C 85.390625 313.03125 85.835938 312.488281 86.332031 311.988281 C 86.832031 311.492188 87.371094 311.046875 87.957031 310.65625 C 88.542969 310.265625 89.160156 309.933594 89.808594 309.664062 C 90.460938 309.394531 91.128906 309.191406 91.820312 309.054688 C 92.507812 308.917969 93.207031 308.847656 93.910156 308.847656 C 94.613281 308.847656 95.308594 308.917969 96 309.054688 C 96.691406 309.191406 97.359375 309.394531 98.007812 309.664062 C 98.660156 309.933594 99.277344 310.265625 99.863281 310.65625 C 100.445312 311.046875 100.988281 311.492188 101.484375 311.988281 C 101.984375 312.488281 102.425781 313.03125 102.816406 313.617188 C 103.207031 314.203125 103.539062 314.820312 103.808594 315.472656 C 104.078125 316.121094 104.28125 316.792969 104.417969 317.484375 C 104.554688 318.175781 104.625 318.871094 104.625 319.578125 Z M 104.625 319.578125 " fill-opacity="1" fill-rule="nonzero"/></g><g clip-path="url(#id3)"><path fill="#ffffff" d="M 276.050781 319.578125 C 276.050781 320.28125 275.984375 320.980469 275.847656 321.667969 C 275.710938 322.359375 275.503906 323.03125 275.238281 323.683594 C 274.96875 324.332031 274.636719 324.953125 274.246094 325.535156 C 273.855469 326.121094 273.410156 326.664062 272.914062 327.164062 C 272.417969 327.660156 271.875 328.105469 271.289062 328.496094 C 270.707031 328.886719 270.089844 329.21875 269.4375 329.488281 C 268.789062 329.757812 268.117188 329.960938 267.429688 330.097656 C 266.738281 330.238281 266.042969 330.304688 265.335938 330.304688 C 264.632812 330.304688 263.9375 330.238281 263.246094 330.097656 C 262.558594 329.960938 261.886719 329.757812 261.238281 329.488281 C 260.585938 329.21875 259.96875 328.886719 259.386719 328.496094 C 258.800781 328.105469 258.257812 327.660156 257.761719 327.164062 C 257.265625 326.664062 256.820312 326.121094 256.429688 325.535156 C 256.039062 324.953125 255.707031 324.332031 255.4375 323.683594 C 255.171875 323.03125 254.964844 322.359375 254.828125 321.667969 C 254.691406 320.980469 254.625 320.28125 254.625 319.578125 C 254.625 318.871094 254.691406 318.175781 254.828125 317.484375 C 254.964844 316.792969 255.171875 316.121094 255.4375 315.472656 C 255.707031 314.820312 256.039062 314.203125 256.429688 313.617188 C 256.820312 313.03125 257.265625 312.488281 257.761719 311.988281 C 258.257812 311.492188 258.800781 311.046875 259.386719 310.65625 C 259.96875 310.265625 260.585938 309.933594 261.238281 309.664062 C 261.886719 309.394531 262.558594 309.191406 263.246094 309.054688 C 263.9375 308.917969 264.632812 308.847656 265.335938 308.847656 C 266.042969 308.847656 266.738281 308.917969 267.429688 309.054688 C 268.117188 309.191406 268.789062 309.394531 269.4375 309.664062 C 270.089844 309.933594 270.707031 310.265625 271.289062 310.65625 C 271.875 311.046875 272.417969 311.492188 272.914062 311.988281 C 273.410156 312.488281 273.855469 313.03125 274.246094 313.617188 C 274.636719 314.203125 274.96875 314.820312 275.238281 315.472656 C 275.503906 316.121094 275.710938 316.792969 275.847656 317.484375 C 275.984375 318.175781 276.050781 318.871094 276.050781 319.578125 Z M 276.050781 319.578125 " fill-opacity="1" fill-rule="nonzero"/></g><path fill="#ffffff" d="M 190.335938 276.660156 C 190.335938 277.367188 190.269531 278.0625 190.132812 278.753906 C 189.996094 279.445312 189.792969 280.117188 189.523438 280.765625 C 189.253906 281.417969 188.921875 282.035156 188.53125 282.621094 C 188.140625 283.207031 187.695312 283.75 187.199219 284.246094 C 186.703125 284.746094 186.160156 285.191406 185.574219 285.582031 C 184.992188 285.972656 184.375 286.304688 183.722656 286.574219 C 183.074219 286.84375 182.402344 287.046875 181.714844 287.183594 C 181.023438 287.320312 180.328125 287.390625 179.625 287.390625 C 178.921875 287.390625 178.222656 287.320312 177.535156 287.183594 C 176.84375 287.046875 176.171875 286.84375 175.523438 286.574219 C 174.875 286.304688 174.257812 285.972656 173.671875 285.582031 C 173.085938 285.191406 172.542969 284.746094 172.046875 284.246094 C 171.550781 283.75 171.105469 283.207031 170.714844 282.621094 C 170.324219 282.035156 169.992188 281.417969 169.726562 280.765625 C 169.457031 280.117188 169.253906 279.445312 169.113281 278.753906 C 168.976562 278.0625 168.910156 277.367188 168.910156 276.660156 C 168.910156 275.957031 168.976562 275.257812 169.113281 274.570312 C 169.253906 273.878906 169.457031 273.207031 169.726562 272.554688 C 169.992188 271.90625 170.324219 271.285156 170.714844 270.699219 C 171.105469 270.117188 171.550781 269.574219 172.046875 269.074219 C 172.542969 268.578125 173.085938 268.132812 173.671875 267.742188 C 174.257812 267.351562 174.875 267.019531 175.523438 266.75 C 176.171875 266.480469 176.84375 266.277344 177.535156 266.140625 C 178.222656 266 178.921875 265.933594 179.625 265.933594 C 180.328125 265.933594 181.023438 266 181.714844 266.140625 C 182.402344 266.277344 183.074219 266.480469 183.722656 266.75 C 184.375 267.019531 184.992188 267.351562 185.574219 267.742188 C 186.160156 268.132812 186.703125 268.578125 187.199219 269.074219 C 187.695312 269.574219 188.140625 270.117188 188.53125 270.699219 C 188.921875 271.285156 189.253906 271.90625 189.523438 272.554688 C 189.792969 273.207031 189.996094 273.878906 190.132812 274.570312 C 190.269531 275.257812 190.335938 275.957031 190.335938 276.660156 Z M 190.335938 276.660156 " fill-opacity="1" fill-rule="nonzero"/><g clip-path="url(#id4)"><path fill="#ffffff" d="M 329.625 244.476562 C 329.625 245.179688 329.554688 245.878906 329.417969 246.570312 C 329.28125 247.257812 329.078125 247.929688 328.808594 248.582031 C 328.539062 249.230469 328.207031 249.851562 327.816406 250.4375 C 327.425781 251.023438 326.984375 251.5625 326.484375 252.0625 C 325.988281 252.558594 325.445312 253.003906 324.863281 253.394531 C 324.277344 253.789062 323.660156 254.117188 323.007812 254.386719 C 322.359375 254.65625 321.691406 254.859375 321 255 C 320.308594 255.136719 319.613281 255.203125 318.910156 255.203125 C 318.207031 255.203125 317.507812 255.136719 316.820312 255 C 316.128906 254.859375 315.460938 254.65625 314.808594 254.386719 C 314.160156 254.117188 313.542969 253.789062 312.957031 253.394531 C 312.371094 253.003906 311.832031 252.558594 311.332031 252.0625 C 310.835938 251.5625 310.390625 251.023438 310 250.4375 C 309.609375 249.851562 309.28125 249.230469 309.011719 248.582031 C 308.742188 247.929688 308.539062 247.257812 308.402344 246.570312 C 308.261719 245.878906 308.195312 245.179688 308.195312 244.476562 C 308.195312 243.769531 308.261719 243.074219 308.402344 242.382812 C 308.539062 241.691406 308.742188 241.019531 309.011719 240.371094 C 309.28125 239.71875 309.609375 239.101562 310 238.515625 C 310.390625 237.929688 310.835938 237.386719 311.332031 236.890625 C 311.832031 236.390625 312.371094 235.945312 312.957031 235.554688 C 313.542969 235.164062 314.160156 234.832031 314.808594 234.5625 C 315.460938 234.292969 316.128906 234.089844 316.820312 233.953125 C 317.507812 233.816406 318.207031 233.746094 318.910156 233.746094 C 319.613281 233.746094 320.308594 233.816406 321 233.953125 C 321.691406 234.089844 322.359375 234.292969 323.007812 234.5625 C 323.660156 234.832031 324.277344 235.164062 324.863281 235.554688 C 325.445312 235.945312 325.988281 236.390625 326.484375 236.890625 C 326.984375 237.386719 327.425781 237.929688 327.816406 238.515625 C 328.207031 239.101562 328.539062 239.71875 328.808594 240.371094 C 329.078125 241.019531 329.28125 241.691406 329.417969 242.382812 C 329.554688 243.074219 329.625 243.769531 329.625 244.476562 Z M 329.625 244.476562 " fill-opacity="1" fill-rule="nonzero"/></g><g clip-path="url(#id5)"><path fill="#ffffff" d="M 51.050781 244.476562 C 51.050781 245.179688 50.984375 245.878906 50.847656 246.570312 C 50.710938 247.257812 50.503906 247.929688 50.238281 248.582031 C 49.96875 249.230469 49.636719 249.851562 49.246094 250.4375 C 48.855469 251.023438 48.410156 251.5625 47.914062 252.0625 C 47.417969 252.558594 46.875 253.003906 46.289062 253.394531 C 45.707031 253.789062 45.089844 254.117188 44.4375 254.386719 C 43.789062 254.65625 43.117188 254.859375 42.429688 255 C 41.738281 255.136719 41.042969 255.203125 40.339844 255.203125 C 39.632812 255.203125 38.9375 255.136719 38.246094 255 C 37.558594 254.859375 36.886719 254.65625 36.238281 254.386719 C 35.585938 254.117188 34.96875 253.789062 34.386719 253.394531 C 33.800781 253.003906 33.257812 252.558594 32.761719 252.0625 C 32.265625 251.5625 31.820312 251.023438 31.429688 250.4375 C 31.039062 249.851562 30.707031 249.230469 30.4375 248.582031 C 30.171875 247.929688 29.964844 247.257812 29.828125 246.570312 C 29.691406 245.878906 29.625 245.179688 29.625 244.476562 C 29.625 243.769531 29.691406 243.074219 29.828125 242.382812 C 29.964844 241.691406 30.171875 241.019531 30.4375 240.371094 C 30.707031 239.71875 31.039062 239.101562 31.429688 238.515625 C 31.820312 237.929688 32.265625 237.386719 32.761719 236.890625 C 33.257812 236.390625 33.800781 235.945312 34.386719 235.554688 C 34.96875 235.164062 35.585938 234.832031 36.238281 234.5625 C 36.886719 234.292969 37.558594 234.089844 38.246094 233.953125 C 38.9375 233.816406 39.632812 233.746094 40.339844 233.746094 C 41.042969 233.746094 41.738281 233.816406 42.429688 233.953125 C 43.117188 234.089844 43.789062 234.292969 44.4375 234.5625 C 45.089844 234.832031 45.707031 235.164062 46.289062 235.554688 C 46.875 235.945312 47.417969 236.390625 47.914062 236.890625 C 48.410156 237.386719 48.855469 237.929688 49.246094 238.515625 C 49.636719 239.101562 49.96875 239.71875 50.238281 240.371094 C 50.503906 241.019531 50.710938 241.691406 50.847656 242.382812 C 50.984375 243.074219 51.050781 243.769531 51.050781 244.476562 Z M 51.050781 244.476562 " fill-opacity="1" fill-rule="nonzero"/></g></svg>