<svg xmlns="http://www.w3.org/2000/svg" xmlns:xlink="http://www.w3.org/1999/xlink" width="500" zoomAndPan="magnify" viewBox="0 0 375 374.999991" height="500" preserveAspectRatio="xMidYMid meet" version="1.0"><defs><clipPath id="id1"><path d="M 26.839844 68.238281 L 336.914062 68.238281 L 336.914062 317.734375 L 26.839844 317.734375 Z M 26.839844 68.238281 " clip-rule="nonzero"/></clipPath></defs><g clip-path="url(#id1)"><path fill="#cd0056" d="M 309.777344 258.074219 C 313.125 258.074219 315.855469 260.785156 315.855469 264.148438 C 315.855469 267.492188 313.125 270.222656 309.757812 270.222656 C 306.414062 270.222656 303.683594 267.492188 303.683594 264.148438 C 303.683594 260.785156 306.414062 258.074219 309.777344 258.074219 Z M 229.625 258.882812 C 232.96875 258.882812 235.699219 261.617188 235.699219 264.960938 C 235.699219 268.304688 232.96875 271.035156 229.625 271.035156 C 226.257812 271.035156 223.546875 268.304688 223.546875 264.960938 C 223.546875 261.617188 226.257812 258.882812 229.625 258.882812 Z M 326.265625 295.554688 C 329.609375 295.554688 332.339844 298.265625 332.339844 301.628906 C 332.339844 304.972656 329.609375 307.703125 326.265625 307.703125 C 322.898438 307.703125 320.167969 304.972656 320.167969 301.628906 C 320.167969 298.265625 322.898438 295.554688 326.265625 295.554688 Z M 153.664062 177.15625 L 75.765625 177.15625 L 75.765625 132.492188 C 75.765625 111.023438 93.242188 93.550781 114.714844 93.550781 C 136.1875 93.550781 153.664062 111.023438 153.664062 132.492188 Z M 131.140625 293.988281 L 97.972656 293.988281 L 106.363281 236.523438 C 100.878906 233.59375 97.140625 227.816406 97.140625 221.167969 C 97.140625 211.550781 104.9375 203.753906 114.554688 203.753906 C 124.175781 203.753906 131.972656 211.550781 131.972656 221.167969 C 131.972656 227.816406 128.253906 233.59375 122.769531 236.523438 Z M 306.574219 78.253906 C 309.917969 78.253906 312.648438 80.984375 312.648438 84.328125 C 312.648438 87.691406 309.917969 90.421875 306.574219 90.421875 C 303.207031 90.421875 300.476562 87.691406 300.476562 84.328125 C 300.476562 80.984375 303.207031 78.253906 306.574219 78.253906 Z M 242.902344 128.871094 C 246.25 128.871094 248.980469 131.601562 248.980469 134.96875 C 248.980469 138.3125 246.25 141.042969 242.902344 141.042969 C 239.558594 141.042969 236.828125 138.3125 236.828125 134.96875 C 236.828125 131.601562 239.558594 128.871094 242.902344 128.871094 Z M 303.367188 147.453125 C 306.710938 147.453125 309.441406 150.183594 309.441406 153.527344 C 309.441406 156.894531 306.710938 159.605469 303.367188 159.605469 C 300 159.605469 297.269531 156.894531 297.269531 153.527344 C 297.269531 150.183594 300 147.453125 303.367188 147.453125 Z M 326.265625 185.152344 C 329.609375 185.152344 332.339844 187.882812 332.339844 191.226562 C 332.339844 194.589844 329.609375 197.320312 326.265625 197.320312 C 322.898438 197.320312 320.167969 194.589844 320.167969 191.226562 C 320.167969 187.882812 322.898438 185.152344 326.265625 185.152344 Z M 288.699219 203.257812 C 292.046875 203.257812 294.777344 205.988281 294.777344 209.351562 C 294.777344 212.699219 292.046875 215.429688 288.699219 215.429688 C 285.355469 215.429688 282.625 212.699219 282.625 209.351562 C 282.625 205.988281 285.355469 203.257812 288.699219 203.257812 Z M 229.625 203.257812 C 232.96875 203.257812 235.699219 205.988281 235.699219 209.351562 C 235.699219 212.699219 232.96875 215.429688 229.625 215.429688 C 226.257812 215.429688 223.546875 212.699219 223.546875 209.351562 C 223.546875 205.988281 226.257812 203.257812 229.625 203.257812 Z M 326.265625 221.742188 C 329.609375 221.742188 332.339844 224.472656 332.339844 227.816406 C 332.339844 231.160156 329.609375 233.890625 326.265625 233.890625 C 322.898438 233.890625 320.167969 231.160156 320.167969 227.816406 C 320.167969 224.472656 322.898438 221.742188 326.265625 221.742188 Z M 315.855469 230.113281 C 316.902344 234.878906 321.160156 238.480469 326.265625 238.480469 C 332.144531 238.480469 336.914062 233.695312 336.914062 227.816406 C 336.914062 221.9375 332.144531 217.148438 326.265625 217.148438 C 321.160156 217.148438 316.902344 220.75 315.855469 225.519531 L 202.609375 225.519531 L 202.609375 211.53125 L 219.195312 211.53125 C 220.203125 216.359375 224.496094 220 229.625 220 C 235.5 220 240.292969 215.230469 240.292969 209.351562 C 240.292969 203.476562 235.5 198.6875 229.625 198.6875 C 224.558594 198.6875 220.320312 202.230469 219.234375 206.957031 L 202.609375 206.957031 L 202.609375 192.96875 L 248.820312 192.96875 L 267.503906 211.628906 L 278.289062 211.628906 C 279.339844 216.417969 283.613281 220 288.699219 220 C 294.578125 220 299.367188 215.230469 299.367188 209.351562 C 299.367188 203.476562 294.578125 198.6875 288.699219 198.6875 C 283.613281 198.6875 279.339844 202.269531 278.289062 207.058594 L 269.402344 207.058594 L 250.722656 188.378906 L 201.996094 188.378906 C 200.113281 181.90625 194.136719 177.15625 187.050781 177.15625 L 178.996094 177.15625 L 178.996094 174.386719 L 270.808594 174.386719 L 289.949219 193.523438 L 315.855469 193.523438 C 316.902344 198.3125 321.160156 201.894531 326.265625 201.894531 C 332.144531 201.894531 336.914062 197.105469 336.914062 191.226562 C 336.914062 185.347656 332.144531 180.582031 326.265625 180.582031 C 321.160156 180.582031 316.902344 184.164062 315.855469 188.949219 L 291.847656 188.949219 L 272.710938 169.816406 L 178.996094 169.816406 L 178.996094 155.824219 L 292.957031 155.824219 C 294.003906 160.59375 298.261719 164.195312 303.367188 164.195312 C 309.246094 164.195312 314.015625 159.40625 314.015625 153.527344 C 314.015625 147.652344 309.246094 142.863281 303.367188 142.863281 C 298.261719 142.863281 294.003906 146.464844 292.957031 151.234375 L 178.996094 151.234375 L 178.996094 137.242188 L 232.492188 137.242188 C 233.542969 142.03125 237.816406 145.613281 242.902344 145.613281 C 248.78125 145.613281 253.570312 140.84375 253.570312 134.96875 C 253.570312 129.089844 248.78125 124.300781 242.902344 124.300781 C 237.816406 124.300781 233.542969 127.882812 232.492188 132.671875 L 178.996094 132.671875 L 178.996094 132.492188 C 178.996094 127.765625 178.484375 123.132812 177.511719 118.679688 L 243.855469 118.679688 L 275.914062 86.625 L 296.164062 86.625 C 297.210938 91.414062 301.464844 94.992188 306.574219 94.992188 C 312.449219 94.992188 317.21875 90.207031 317.21875 84.328125 C 317.21875 78.449219 312.449219 73.679688 306.574219 73.679688 C 301.464844 73.679688 297.210938 77.261719 296.164062 82.050781 L 274.015625 82.050781 L 241.953125 114.089844 L 176.324219 114.089844 C 168.390625 87.59375 143.769531 68.21875 114.714844 68.21875 C 79.269531 68.21875 50.433594 97.050781 50.433594 132.492188 L 50.433594 177.15625 L 42.378906 177.15625 C 33.808594 177.15625 26.839844 184.101562 26.839844 192.691406 L 26.839844 302.203125 C 26.839844 310.769531 33.808594 317.734375 42.378906 317.734375 L 187.050781 317.734375 C 195.640625 317.734375 202.609375 310.769531 202.609375 302.203125 L 202.609375 285.816406 L 284.542969 285.816406 L 302.652344 303.921875 L 315.855469 303.921875 C 316.902344 308.691406 321.160156 312.292969 326.265625 312.292969 C 332.144531 312.292969 336.914062 307.503906 336.914062 301.628906 C 336.914062 295.75 332.144531 290.960938 326.265625 290.960938 C 321.160156 290.960938 316.902344 294.5625 315.855469 299.332031 L 304.535156 299.332031 L 286.445312 281.246094 L 202.609375 281.246094 L 202.609375 267.253906 L 219.214844 267.253906 C 220.261719 272.023438 224.539062 275.625 229.625 275.625 C 235.5 275.625 240.292969 270.835938 240.292969 264.960938 C 240.292969 259.082031 235.5 254.292969 229.625 254.292969 C 224.539062 254.292969 220.261719 257.894531 219.214844 262.664062 L 202.609375 262.664062 L 202.609375 248.671875 L 241.953125 248.671875 L 259.707031 266.445312 L 299.347656 266.445312 C 300.417969 271.214844 304.671875 274.816406 309.757812 274.816406 C 315.65625 274.816406 320.425781 270.027344 320.425781 264.148438 C 320.425781 258.269531 315.65625 253.480469 309.777344 253.480469 C 304.671875 253.480469 300.417969 257.082031 299.347656 261.851562 L 261.605469 261.851562 L 243.855469 244.101562 L 202.609375 244.101562 L 202.609375 230.113281 L 315.855469 230.113281 " fill-opacity="1" fill-rule="nonzero"/></g></svg>