<svg xmlns="http://www.w3.org/2000/svg" xmlns:xlink="http://www.w3.org/1999/xlink" width="500" zoomAndPan="magnify" viewBox="0 0 375 374.999991" height="500" preserveAspectRatio="xMidYMid meet" version="1.0"><defs><clipPath id="id1"><path d="M 61.863281 150 L 236 150 L 236 324.410156 L 61.863281 324.410156 Z M 61.863281 150 " clip-rule="nonzero"/></clipPath><clipPath id="id2"><path d="M 131 50.660156 L 246 50.660156 L 246 165 L 131 165 Z M 131 50.660156 " clip-rule="nonzero"/></clipPath><clipPath id="id3"><path d="M 213 128 L 304.863281 128 L 304.863281 220 L 213 220 Z M 213 128 " clip-rule="nonzero"/></clipPath></defs><g clip-path="url(#id1)"><path fill="#b60031" d="M 207.699219 201.976562 L 217.324219 183.527344 L 202.523438 168.730469 L 184.019531 178.382812 C 178.265625 174.933594 171.972656 172.300781 165.289062 170.636719 L 159.027344 150.722656 L 138.101562 150.722656 L 131.839844 170.636719 C 125.160156 172.300781 118.859375 174.9375 113.113281 178.382812 L 94.605469 168.730469 L 79.808594 183.527344 L 89.433594 201.972656 C 85.941406 207.746094 83.277344 214.070312 81.59375 220.789062 L 61.789062 227.011719 L 61.789062 247.933594 L 81.515625 254.136719 C 83.179688 260.917969 85.847656 267.304688 89.347656 273.128906 L 79.804688 291.417969 L 94.605469 306.214844 L 112.84375 296.703125 C 118.695312 300.246094 125.113281 302.941406 131.933594 304.625 L 138.09375 324.230469 L 159.023438 324.230469 L 165.1875 304.625 C 172.003906 302.941406 178.421875 300.246094 184.273438 296.703125 L 202.515625 306.214844 L 217.316406 291.417969 L 207.773438 273.128906 C 211.273438 267.304688 213.941406 260.917969 215.601562 254.136719 L 235.328125 247.933594 L 235.328125 227.011719 L 215.527344 220.789062 C 213.851562 214.074219 211.1875 207.75 207.699219 201.976562 Z M 148.566406 283.398438 C 123.28125 283.398438 102.785156 262.902344 102.785156 237.621094 C 102.785156 212.339844 123.28125 191.84375 148.566406 191.84375 C 173.851562 191.84375 194.347656 212.339844 194.347656 237.621094 C 194.347656 262.902344 173.851562 283.398438 148.566406 283.398438 Z M 148.566406 283.398438 " fill-opacity="1" fill-rule="nonzero"/></g><g clip-path="url(#id2)"><path fill="#b60031" d="M 145.101562 121.214844 L 136.175781 131.375 L 143.296875 143.101562 L 156.398438 139.878906 C 159.570312 143.046875 163.242188 145.761719 167.320312 147.894531 L 168.195312 161.339844 L 181.523438 164.59375 L 188.5 153.066406 C 193.105469 153.054688 197.609375 152.335938 201.890625 150.992188 L 212.023438 159.890625 L 223.757812 152.769531 L 220.523438 139.636719 C 223.660156 136.472656 226.351562 132.816406 228.464844 128.757812 L 241.996094 127.878906 L 245.25 114.554688 L 233.613281 107.511719 C 233.582031 102.96875 232.871094 98.527344 231.542969 94.308594 L 240.546875 84.054688 L 233.425781 72.328125 L 220.136719 75.597656 C 217.011719 72.507812 213.410156 69.847656 209.417969 67.75 L 208.527344 54.089844 L 195.199219 50.835938 L 188.109375 62.546875 C 183.597656 62.566406 179.179688 63.261719 174.976562 64.566406 L 164.695312 55.539062 L 152.964844 62.660156 L 156.230469 75.90625 C 153.105469 79.039062 150.425781 82.652344 148.308594 86.667969 L 134.730469 87.550781 L 131.472656 100.878906 L 143.070312 107.894531 C 143.074219 112.476562 143.777344 116.957031 145.101562 121.214844 Z M 159.179688 100.6875 C 163.113281 84.589844 179.355469 74.726562 195.460938 78.660156 C 211.5625 82.59375 221.429688 98.835938 217.496094 114.933594 C 213.558594 131.035156 197.316406 140.898438 181.210938 136.964844 C 165.109375 133.03125 155.242188 116.789062 159.179688 100.6875 Z M 159.179688 100.6875 " fill-opacity="1" fill-rule="nonzero"/></g><g clip-path="url(#id3)"><path fill="#b60031" d="M 294.84375 170.167969 C 294.472656 166.6875 293.597656 163.238281 292.195312 159.933594 L 298.53125 151.070312 L 291.960938 142.355469 L 281.695312 146 C 278.90625 143.734375 275.832031 141.941406 272.589844 140.625 L 270.804688 129.890625 L 259.996094 128.367188 L 255.332031 138.167969 C 251.828125 138.527344 248.359375 139.398438 245.03125 140.808594 L 236.21875 134.507812 L 227.5 141.074219 L 231.109375 151.238281 C 228.804688 154.058594 226.980469 157.175781 225.648438 160.464844 L 215.03125 162.226562 L 213.507812 173.035156 L 223.195312 177.648438 C 223.558594 181.199219 224.449219 184.71875 225.886719 188.089844 L 219.652344 196.808594 L 226.21875 205.527344 L 236.324219 201.941406 C 239.164062 204.253906 242.308594 206.082031 245.617188 207.410156 L 247.375 217.996094 L 258.1875 219.515625 L 262.816406 209.800781 C 266.339844 209.433594 269.839844 208.535156 273.183594 207.105469 L 281.960938 213.378906 L 290.679688 206.808594 L 287.058594 196.609375 C 289.332031 193.796875 291.132812 190.703125 292.441406 187.4375 L 303.148438 185.660156 L 304.671875 174.851562 Z M 273.398438 193.058594 C 262.859375 200.992188 247.890625 198.886719 239.953125 188.351562 C 232.015625 177.816406 234.125 162.847656 244.664062 154.914062 C 255.203125 146.980469 270.175781 149.085938 278.109375 159.621094 C 286.042969 170.152344 283.933594 185.125 273.398438 193.058594 Z M 273.398438 193.058594 " fill-opacity="1" fill-rule="nonzero"/></g></svg>